solid OpenSCAD_Model
  facet normal 0 1 0
    outer loop
      vertex -5.535 -3.025 7.5
      vertex 5.535 -3.025 0
      vertex -5.535 -3.025 0
    endloop
  endfacet
  facet normal 1 0 0
    outer loop
      vertex -5.535 -3.025 7.5
      vertex -5.535 -3.025 0
      vertex -5.535 3.025 7.5
    endloop
  endfacet
  facet normal 1 0 0
    outer loop
      vertex -5.535 3.025 7.5
      vertex -5.535 -3.025 0
      vertex -5.535 3.025 0
    endloop
  endfacet
  facet normal 0 -1 0
    outer loop
      vertex -5.535 3.025 0
      vertex -1 3.025 0
      vertex -1 3.025 7.5
    endloop
  endfacet
  facet normal 0 -1 0
    outer loop
      vertex -5.535 3.025 7.5
      vertex -5.535 3.025 0
      vertex -1 3.025 7.5
    endloop
  endfacet
  facet normal -1 0 0
    outer loop
      vertex 5.535 -3.025 0
      vertex 5.535 -3.025 7.5
      vertex 5.535 3.025 0
    endloop
  endfacet
  facet normal 0 1 0
    outer loop
      vertex -5.535 -3.025 7.5
      vertex 5.535 -3.025 7.5
      vertex 5.535 -3.025 0
    endloop
  endfacet
  facet normal 0 -1 0
    outer loop
      vertex 5.535 3.025 0
      vertex 5.535 3.025 7.5
      vertex 1 3.025 0
    endloop
  endfacet
  facet normal 0 -1 0
    outer loop
      vertex 1 3.025 0
      vertex 5.535 3.025 7.5
      vertex 1 3.025 7.5
    endloop
  endfacet
  facet normal -1 0 0
    outer loop
      vertex 5.535 3.025 0
      vertex 5.535 -3.025 7.5
      vertex 5.535 3.025 7.5
    endloop
  endfacet
  facet normal 1 0 0
    outer loop
      vertex -1 3.025 0
      vertex -1 4.125 0
      vertex -1 4.125 7.5
    endloop
  endfacet
  facet normal 1 0 0
    outer loop
      vertex -1 3.025 0
      vertex -1 4.125 7.5
      vertex -1 3.025 7.5
    endloop
  endfacet
  facet normal 0 -1 0
    outer loop
      vertex -1 4.125 0
      vertex 1 4.125 7.5
      vertex -1 4.125 7.5
    endloop
  endfacet
  facet normal -1 0 0
    outer loop
      vertex 1 4.125 0
      vertex 1 3.025 0
      vertex 1 3.025 7.5
    endloop
  endfacet
  facet normal 0 -1 0
    outer loop
      vertex -1 4.125 0
      vertex 1 4.125 0
      vertex 1 4.125 7.5
    endloop
  endfacet
  facet normal -1 0 0
    outer loop
      vertex 1 4.125 0
      vertex 1 3.025 7.5
      vertex 1 4.125 7.5
    endloop
  endfacet
  facet normal 0 0 -1
    outer loop
      vertex -7.535 -5.025 0
      vertex -7.535 5.025 0
      vertex -5.535 -3.025 0
    endloop
  endfacet
  facet normal 0 0 -1
    outer loop
      vertex -7.535 -5.025 0
      vertex -5.535 -3.025 0
      vertex 5.535 -3.025 0
    endloop
  endfacet
  facet normal -1 0 0
    outer loop
      vertex -7.535 -5.025 0
      vertex -7.535 -5.025 7.5
      vertex -7.535 5.025 7.5
    endloop
  endfacet
  facet normal 0 0 1
    outer loop
      vertex -7.535 -5.025 7.5
      vertex -5.535 -3.025 7.5
      vertex -5.535 3.025 7.5
    endloop
  endfacet
  facet normal 0 -1 0
    outer loop
      vertex -7.535 -5.025 0
      vertex 7.535 -5.025 7.5
      vertex -7.535 -5.025 7.5
    endloop
  endfacet
  facet normal 0 0 1
    outer loop
      vertex -7.535 -5.025 7.5
      vertex 7.535 -5.025 7.5
      vertex -5.535 -3.025 7.5
    endloop
  endfacet
  facet normal 0 0 -1
    outer loop
      vertex -7.535 5.025 0
      vertex -5.535 3.025 0
      vertex -5.535 -3.025 0
    endloop
  endfacet
  facet normal -1 0 0
    outer loop
      vertex -7.535 -5.025 0
      vertex -7.535 5.025 7.5
      vertex -7.535 5.025 0
    endloop
  endfacet
  facet normal 0 0 -1
    outer loop
      vertex -7.535 5.025 0
      vertex -1 4.125 0
      vertex -5.535 3.025 0
    endloop
  endfacet
  facet normal 0 0 -1
    outer loop
      vertex -1 3.025 0
      vertex -5.535 3.025 0
      vertex -1 4.125 0
    endloop
  endfacet
  facet normal 0 0 -1
    outer loop
      vertex -7.535 5.025 0
      vertex 1 4.125 0
      vertex -1 4.125 0
    endloop
  endfacet
  facet normal 0 1 0
    outer loop
      vertex -7.535 5.025 0
      vertex -7.535 5.025 7.5
      vertex 7.535 5.025 0
    endloop
  endfacet
  facet normal 0 0 1
    outer loop
      vertex -7.535 -5.025 7.5
      vertex -5.535 3.025 7.5
      vertex -7.535 5.025 7.5
    endloop
  endfacet
  facet normal 0 0 1
    outer loop
      vertex -7.535 5.025 7.5
      vertex -5.535 3.025 7.5
      vertex -1 3.025 7.5
    endloop
  endfacet
  facet normal 0 0 1
    outer loop
      vertex -7.535 5.025 7.5
      vertex -1 3.025 7.5
      vertex -1 4.125 7.5
    endloop
  endfacet
  facet normal 0 0 1
    outer loop
      vertex -7.535 5.025 7.5
      vertex -1 4.125 7.5
      vertex 7.535 5.025 7.5
    endloop
  endfacet
  facet normal 0 0 -1
    outer loop
      vertex -7.535 -5.025 0
      vertex 5.535 -3.025 0
      vertex 7.535 -5.025 0
    endloop
  endfacet
  facet normal 0 -1 0
    outer loop
      vertex -7.535 -5.025 0
      vertex 7.535 -5.025 0
      vertex 7.535 -5.025 7.5
    endloop
  endfacet
  facet normal 0 0 -1
    outer loop
      vertex 7.535 -5.025 0
      vertex 5.535 -3.025 0
      vertex 5.535 3.025 0
    endloop
  endfacet
  facet normal 1 0 0
    outer loop
      vertex 7.535 -5.025 0
      vertex 7.535 5.025 0
      vertex 7.535 -5.025 7.5
    endloop
  endfacet
  facet normal 0 0 1
    outer loop
      vertex 7.535 -5.025 7.5
      vertex 5.535 -3.025 7.5
      vertex -5.535 -3.025 7.5
    endloop
  endfacet
  facet normal 0 0 1
    outer loop
      vertex 7.535 -5.025 7.5
      vertex 7.535 5.025 7.5
      vertex 5.535 -3.025 7.5
    endloop
  endfacet
  facet normal 0 0 -1
    outer loop
      vertex -7.535 5.025 0
      vertex 7.535 5.025 0
      vertex 1 4.125 0
    endloop
  endfacet
  facet normal 0 0 -1
    outer loop
      vertex 7.535 5.025 0
      vertex 1 3.025 0
      vertex 1 4.125 0
    endloop
  endfacet
  facet normal 0 0 -1
    outer loop
      vertex 7.535 -5.025 0
      vertex 5.535 3.025 0
      vertex 7.535 5.025 0
    endloop
  endfacet
  facet normal 0 0 -1
    outer loop
      vertex 7.535 5.025 0
      vertex 5.535 3.025 0
      vertex 1 3.025 0
    endloop
  endfacet
  facet normal 0 1 0
    outer loop
      vertex -7.535 5.025 7.5
      vertex 7.535 5.025 7.5
      vertex 7.535 5.025 0
    endloop
  endfacet
  facet normal 0 0 1
    outer loop
      vertex 1 3.025 7.5
      vertex 5.535 3.025 7.5
      vertex 1 4.125 7.5
    endloop
  endfacet
  facet normal 0 0 1
    outer loop
      vertex 7.535 5.025 7.5
      vertex -1 4.125 7.5
      vertex 1 4.125 7.5
    endloop
  endfacet
  facet normal 1 0 0
    outer loop
      vertex 7.535 -5.025 7.5
      vertex 7.535 5.025 0
      vertex 7.535 5.025 7.5
    endloop
  endfacet
  facet normal 0 0 1
    outer loop
      vertex 7.535 5.025 7.5
      vertex 5.535 3.025 7.5
      vertex 5.535 -3.025 7.5
    endloop
  endfacet
  facet normal 0 0 1
    outer loop
      vertex 7.535 5.025 7.5
      vertex 1 4.125 7.5
      vertex 5.535 3.025 7.5
    endloop
  endfacet
endsolid OpenSCAD_Model
