solid OpenSCAD_Model
  facet normal 0 1 0
    outer loop
      vertex 1.54 -3.025 0
      vertex -6.8050000000000015 -3.025 0
      vertex -6.8050000000000015 -3.025 7.5
    endloop
  endfacet
  facet normal 1 0 0
    outer loop
      vertex -6.8050000000000015 -3.025 7.5
      vertex -6.8050000000000015 -3.025 0
      vertex -6.8050000000000015 3.025 7.5
    endloop
  endfacet
  facet normal 0 1 0
    outer loop
      vertex 1.54 -3.025 7.5
      vertex 1.54 -3.025 0
      vertex -6.8050000000000015 -3.025 7.5
    endloop
  endfacet
  facet normal 1 0 0
    outer loop
      vertex -6.8050000000000015 3.025 7.5
      vertex -6.8050000000000015 -3.025 0
      vertex -6.8050000000000015 3.025 0
    endloop
  endfacet
  facet normal 0 -1 0
    outer loop
      vertex -6.8050000000000015 3.025 7.5
      vertex -6.8050000000000015 3.025 0
      vertex 6.8050000000000015 3.025 7.5
    endloop
  endfacet
  facet normal 0 1 0
    outer loop
      vertex 3.54 -3.025 7.5
      vertex 6.8050000000000015 -3.025 0
      vertex 3.54 -3.025 0
    endloop
  endfacet
  facet normal -1 0 0
    outer loop
      vertex 6.8050000000000015 -3.025 0
      vertex 6.8050000000000015 -3.025 7.5
      vertex 6.8050000000000015 3.025 0
    endloop
  endfacet
  facet normal 0 1 0
    outer loop
      vertex 6.8050000000000015 -3.025 0
      vertex 3.54 -3.025 7.5
      vertex 6.8050000000000015 -3.025 7.5
    endloop
  endfacet
  facet normal 0 -1 0
    outer loop
      vertex -6.8050000000000015 3.025 0
      vertex 6.8050000000000015 3.025 0
      vertex 6.8050000000000015 3.025 7.5
    endloop
  endfacet
  facet normal -1 0 0
    outer loop
      vertex 6.8050000000000015 3.025 0
      vertex 6.8050000000000015 -3.025 7.5
      vertex 6.8050000000000015 3.025 7.5
    endloop
  endfacet
  facet normal 1 0 0
    outer loop
      vertex 1.54 -3.025 0
      vertex 1.54 -3.025 7.5
      vertex 1.54 -4.125 0
    endloop
  endfacet
  facet normal 0 1 0
    outer loop
      vertex 1.54 -4.125 7.5
      vertex 3.54 -4.125 0
      vertex 1.54 -4.125 0
    endloop
  endfacet
  facet normal -1 0 0
    outer loop
      vertex 3.54 -4.125 0
      vertex 3.54 -4.125 7.5
      vertex 3.54 -3.025 0
    endloop
  endfacet
  facet normal 1 0 0
    outer loop
      vertex 1.54 -3.025 7.5
      vertex 1.54 -4.125 7.5
      vertex 1.54 -4.125 0
    endloop
  endfacet
  facet normal 0 1 0
    outer loop
      vertex 3.54 -4.125 7.5
      vertex 3.54 -4.125 0
      vertex 1.54 -4.125 7.5
    endloop
  endfacet
  facet normal -1 0 0
    outer loop
      vertex 3.54 -4.125 7.5
      vertex 3.54 -3.025 7.5
      vertex 3.54 -3.025 0
    endloop
  endfacet
  facet normal 0 0 -1
    outer loop
      vertex -8.805000000000001 -5.025 0
      vertex -6.8050000000000015 -3.025 0
      vertex 1.54 -3.025 0
    endloop
  endfacet
  facet normal 0 0 -1
    outer loop
      vertex -8.805000000000001 -5.025 0
      vertex -8.805000000000001 5.025 0
      vertex -6.8050000000000015 -3.025 0
    endloop
  endfacet
  facet normal 0 0 -1
    outer loop
      vertex -8.805000000000001 -5.025 0
      vertex 1.54 -4.125 0
      vertex 3.54 -4.125 0
    endloop
  endfacet
  facet normal 0 0 -1
    outer loop
      vertex -8.805000000000001 -5.025 0
      vertex 1.54 -3.025 0
      vertex 1.54 -4.125 0
    endloop
  endfacet
  facet normal 0 0 1
    outer loop
      vertex -8.805000000000001 -5.025 7.5
      vertex 1.54 -4.125 7.5
      vertex -6.8050000000000015 -3.025 7.5
    endloop
  endfacet
  facet normal -1 0 0
    outer loop
      vertex -8.805000000000001 -5.025 0
      vertex -8.805000000000001 -5.025 7.5
      vertex -8.805000000000001 5.025 7.5
    endloop
  endfacet
  facet normal 0 0 1
    outer loop
      vertex -8.805000000000001 -5.025 7.5
      vertex -6.8050000000000015 -3.025 7.5
      vertex -6.8050000000000015 3.025 7.5
    endloop
  endfacet
  facet normal 0 -1 0
    outer loop
      vertex -8.805000000000001 -5.025 0
      vertex 8.805000000000001 -5.025 7.5
      vertex -8.805000000000001 -5.025 7.5
    endloop
  endfacet
  facet normal 0 0 1
    outer loop
      vertex -8.805000000000001 -5.025 7.5
      vertex 3.54 -4.125 7.5
      vertex 1.54 -4.125 7.5
    endloop
  endfacet
  facet normal 0 0 1
    outer loop
      vertex -6.8050000000000015 -3.025 7.5
      vertex 1.54 -4.125 7.5
      vertex 1.54 -3.025 7.5
    endloop
  endfacet
  facet normal 0 0 -1
    outer loop
      vertex -8.805000000000001 5.025 0
      vertex -6.8050000000000015 3.025 0
      vertex -6.8050000000000015 -3.025 0
    endloop
  endfacet
  facet normal -1 0 0
    outer loop
      vertex -8.805000000000001 -5.025 0
      vertex -8.805000000000001 5.025 7.5
      vertex -8.805000000000001 5.025 0
    endloop
  endfacet
  facet normal 0 0 -1
    outer loop
      vertex -8.805000000000001 5.025 0
      vertex 8.805000000000001 5.025 0
      vertex -6.8050000000000015 3.025 0
    endloop
  endfacet
  facet normal 0 1 0
    outer loop
      vertex -8.805000000000001 5.025 0
      vertex -8.805000000000001 5.025 7.5
      vertex 8.805000000000001 5.025 0
    endloop
  endfacet
  facet normal 0 0 1
    outer loop
      vertex -8.805000000000001 -5.025 7.5
      vertex -6.8050000000000015 3.025 7.5
      vertex -8.805000000000001 5.025 7.5
    endloop
  endfacet
  facet normal 0 0 1
    outer loop
      vertex -8.805000000000001 5.025 7.5
      vertex -6.8050000000000015 3.025 7.5
      vertex 6.8050000000000015 3.025 7.5
    endloop
  endfacet
  facet normal 0 0 -1
    outer loop
      vertex -8.805000000000001 -5.025 0
      vertex 3.54 -4.125 0
      vertex 8.805000000000001 -5.025 0
    endloop
  endfacet
  facet normal 0 -1 0
    outer loop
      vertex -8.805000000000001 -5.025 0
      vertex 8.805000000000001 -5.025 0
      vertex 8.805000000000001 -5.025 7.5
    endloop
  endfacet
  facet normal 0 0 -1
    outer loop
      vertex 8.805000000000001 -5.025 0
      vertex 3.54 -4.125 0
      vertex 6.8050000000000015 -3.025 0
    endloop
  endfacet
  facet normal 0 0 -1
    outer loop
      vertex 3.54 -4.125 0
      vertex 3.54 -3.025 0
      vertex 6.8050000000000015 -3.025 0
    endloop
  endfacet
  facet normal 0 0 -1
    outer loop
      vertex 8.805000000000001 -5.025 0
      vertex 6.8050000000000015 -3.025 0
      vertex 6.8050000000000015 3.025 0
    endloop
  endfacet
  facet normal 1 0 0
    outer loop
      vertex 8.805000000000001 -5.025 0
      vertex 8.805000000000001 5.025 0
      vertex 8.805000000000001 -5.025 7.5
    endloop
  endfacet
  facet normal 0 0 1
    outer loop
      vertex -8.805000000000001 -5.025 7.5
      vertex 8.805000000000001 -5.025 7.5
      vertex 3.54 -4.125 7.5
    endloop
  endfacet
  facet normal 0 0 1
    outer loop
      vertex 8.805000000000001 -5.025 7.5
      vertex 3.54 -3.025 7.5
      vertex 3.54 -4.125 7.5
    endloop
  endfacet
  facet normal 0 0 1
    outer loop
      vertex 8.805000000000001 -5.025 7.5
      vertex 6.8050000000000015 -3.025 7.5
      vertex 3.54 -3.025 7.5
    endloop
  endfacet
  facet normal 0 0 1
    outer loop
      vertex 8.805000000000001 -5.025 7.5
      vertex 8.805000000000001 5.025 7.5
      vertex 6.8050000000000015 -3.025 7.5
    endloop
  endfacet
  facet normal 0 0 -1
    outer loop
      vertex 8.805000000000001 5.025 0
      vertex 6.8050000000000015 3.025 0
      vertex -6.8050000000000015 3.025 0
    endloop
  endfacet
  facet normal 0 0 -1
    outer loop
      vertex 8.805000000000001 -5.025 0
      vertex 6.8050000000000015 3.025 0
      vertex 8.805000000000001 5.025 0
    endloop
  endfacet
  facet normal 0 1 0
    outer loop
      vertex -8.805000000000001 5.025 7.5
      vertex 8.805000000000001 5.025 7.5
      vertex 8.805000000000001 5.025 0
    endloop
  endfacet
  facet normal 0 0 1
    outer loop
      vertex -8.805000000000001 5.025 7.5
      vertex 6.8050000000000015 3.025 7.5
      vertex 8.805000000000001 5.025 7.5
    endloop
  endfacet
  facet normal 1 0 0
    outer loop
      vertex 8.805000000000001 -5.025 7.5
      vertex 8.805000000000001 5.025 0
      vertex 8.805000000000001 5.025 7.5
    endloop
  endfacet
  facet normal 0 0 1
    outer loop
      vertex 8.805000000000001 5.025 7.5
      vertex 6.8050000000000015 3.025 7.5
      vertex 6.8050000000000015 -3.025 7.5
    endloop
  endfacet
endsolid OpenSCAD_Model
