solid OpenSCAD_Model
  facet normal 0 1 0
    outer loop
      vertex 1.565 -2.9949999999999997 0
      vertex -6.805000000000001 -2.9949999999999997 0
      vertex -6.805000000000001 -2.9949999999999997 7.5
    endloop
  endfacet
  facet normal 1 0 0
    outer loop
      vertex -6.805000000000001 -2.9949999999999997 7.5
      vertex -6.805000000000001 -2.9949999999999997 0
      vertex -6.805000000000001 2.9949999999999997 7.5
    endloop
  endfacet
  facet normal 0 1 0
    outer loop
      vertex 1.565 -2.9949999999999997 7.5
      vertex 1.565 -2.9949999999999997 0
      vertex -6.805000000000001 -2.9949999999999997 7.5
    endloop
  endfacet
  facet normal 1 0 0
    outer loop
      vertex -6.805000000000001 2.9949999999999997 7.5
      vertex -6.805000000000001 -2.9949999999999997 0
      vertex -6.805000000000001 2.9949999999999997 0
    endloop
  endfacet
  facet normal 0 -1 0
    outer loop
      vertex -6.805000000000001 2.9949999999999997 7.5
      vertex -6.805000000000001 2.9949999999999997 0
      vertex 6.805000000000001 2.9949999999999997 7.5
    endloop
  endfacet
  facet normal 0 1 0
    outer loop
      vertex 3.5149999999999997 -2.9949999999999997 7.5
      vertex 6.805000000000001 -2.9949999999999997 0
      vertex 3.5149999999999997 -2.9949999999999997 0
    endloop
  endfacet
  facet normal -1 0 0
    outer loop
      vertex 6.805000000000001 -2.9949999999999997 0
      vertex 6.805000000000001 -2.9949999999999997 7.5
      vertex 6.805000000000001 2.9949999999999997 0
    endloop
  endfacet
  facet normal 0 1 0
    outer loop
      vertex 6.805000000000001 -2.9949999999999997 0
      vertex 3.5149999999999997 -2.9949999999999997 7.5
      vertex 6.805000000000001 -2.9949999999999997 7.5
    endloop
  endfacet
  facet normal 0 -1 0
    outer loop
      vertex -6.805000000000001 2.9949999999999997 0
      vertex 6.805000000000001 2.9949999999999997 0
      vertex 6.805000000000001 2.9949999999999997 7.5
    endloop
  endfacet
  facet normal -1 0 0
    outer loop
      vertex 6.805000000000001 2.9949999999999997 0
      vertex 6.805000000000001 -2.9949999999999997 7.5
      vertex 6.805000000000001 2.9949999999999997 7.5
    endloop
  endfacet
  facet normal 1 0 0
    outer loop
      vertex 1.565 -2.9949999999999997 0
      vertex 1.565 -2.9949999999999997 7.5
      vertex 1.565 -4.095 0
    endloop
  endfacet
  facet normal 0 1 0
    outer loop
      vertex 1.565 -4.095 7.5
      vertex 3.5149999999999997 -4.095 0
      vertex 1.565 -4.095 0
    endloop
  endfacet
  facet normal -1 0 0
    outer loop
      vertex 3.5149999999999997 -4.095 0
      vertex 3.5149999999999997 -4.095 7.5
      vertex 3.5149999999999997 -2.9949999999999997 0
    endloop
  endfacet
  facet normal 1 0 0
    outer loop
      vertex 1.565 -2.9949999999999997 7.5
      vertex 1.565 -4.095 7.5
      vertex 1.565 -4.095 0
    endloop
  endfacet
  facet normal 0 1 0
    outer loop
      vertex 3.5149999999999997 -4.095 7.5
      vertex 3.5149999999999997 -4.095 0
      vertex 1.565 -4.095 7.5
    endloop
  endfacet
  facet normal -1 0 0
    outer loop
      vertex 3.5149999999999997 -4.095 7.5
      vertex 3.5149999999999997 -2.9949999999999997 7.5
      vertex 3.5149999999999997 -2.9949999999999997 0
    endloop
  endfacet
  facet normal 0 0 -1
    outer loop
      vertex -8.805 -4.994999999999999 0
      vertex -6.805000000000001 -2.9949999999999997 0
      vertex 1.565 -2.9949999999999997 0
    endloop
  endfacet
  facet normal 0 0 -1
    outer loop
      vertex -8.805 -4.994999999999999 0
      vertex -8.805 4.994999999999999 0
      vertex -6.805000000000001 -2.9949999999999997 0
    endloop
  endfacet
  facet normal 0 0 -1
    outer loop
      vertex -8.805 -4.994999999999999 0
      vertex 1.565 -4.095 0
      vertex 3.5149999999999997 -4.095 0
    endloop
  endfacet
  facet normal 0 0 -1
    outer loop
      vertex -8.805 -4.994999999999999 0
      vertex 1.565 -2.9949999999999997 0
      vertex 1.565 -4.095 0
    endloop
  endfacet
  facet normal 0 0 1
    outer loop
      vertex -8.805 -4.994999999999999 7.5
      vertex 1.565 -4.095 7.5
      vertex -6.805000000000001 -2.9949999999999997 7.5
    endloop
  endfacet
  facet normal -1 0 0
    outer loop
      vertex -8.805 -4.994999999999999 0
      vertex -8.805 -4.994999999999999 7.5
      vertex -8.805 4.994999999999999 7.5
    endloop
  endfacet
  facet normal 0 0 1
    outer loop
      vertex -8.805 -4.994999999999999 7.5
      vertex -6.805000000000001 -2.9949999999999997 7.5
      vertex -6.805000000000001 2.9949999999999997 7.5
    endloop
  endfacet
  facet normal 0 -1 0
    outer loop
      vertex -8.805 -4.994999999999999 0
      vertex 8.805 -4.994999999999999 7.5
      vertex -8.805 -4.994999999999999 7.5
    endloop
  endfacet
  facet normal 0 0 1
    outer loop
      vertex -8.805 -4.994999999999999 7.5
      vertex 3.5149999999999997 -4.095 7.5
      vertex 1.565 -4.095 7.5
    endloop
  endfacet
  facet normal 0 0 1
    outer loop
      vertex -6.805000000000001 -2.9949999999999997 7.5
      vertex 1.565 -4.095 7.5
      vertex 1.565 -2.9949999999999997 7.5
    endloop
  endfacet
  facet normal 0 0 -1
    outer loop
      vertex -8.805 4.994999999999999 0
      vertex -6.805000000000001 2.9949999999999997 0
      vertex -6.805000000000001 -2.9949999999999997 0
    endloop
  endfacet
  facet normal -1 0 0
    outer loop
      vertex -8.805 -4.994999999999999 0
      vertex -8.805 4.994999999999999 7.5
      vertex -8.805 4.994999999999999 0
    endloop
  endfacet
  facet normal 0 0 -1
    outer loop
      vertex -8.805 4.994999999999999 0
      vertex 8.805 4.994999999999999 0
      vertex -6.805000000000001 2.9949999999999997 0
    endloop
  endfacet
  facet normal 0 1 0
    outer loop
      vertex -8.805 4.994999999999999 0
      vertex -8.805 4.994999999999999 7.5
      vertex 8.805 4.994999999999999 0
    endloop
  endfacet
  facet normal 0 0 1
    outer loop
      vertex -8.805 -4.994999999999999 7.5
      vertex -6.805000000000001 2.9949999999999997 7.5
      vertex -8.805 4.994999999999999 7.5
    endloop
  endfacet
  facet normal 0 0 1
    outer loop
      vertex -8.805 4.994999999999999 7.5
      vertex -6.805000000000001 2.9949999999999997 7.5
      vertex 6.805000000000001 2.9949999999999997 7.5
    endloop
  endfacet
  facet normal 0 0 -1
    outer loop
      vertex -8.805 -4.994999999999999 0
      vertex 3.5149999999999997 -4.095 0
      vertex 8.805 -4.994999999999999 0
    endloop
  endfacet
  facet normal 0 -1 0
    outer loop
      vertex -8.805 -4.994999999999999 0
      vertex 8.805 -4.994999999999999 0
      vertex 8.805 -4.994999999999999 7.5
    endloop
  endfacet
  facet normal 0 0 -1
    outer loop
      vertex 8.805 -4.994999999999999 0
      vertex 3.5149999999999997 -4.095 0
      vertex 6.805000000000001 -2.9949999999999997 0
    endloop
  endfacet
  facet normal 0 0 -1
    outer loop
      vertex 3.5149999999999997 -4.095 0
      vertex 3.5149999999999997 -2.9949999999999997 0
      vertex 6.805000000000001 -2.9949999999999997 0
    endloop
  endfacet
  facet normal 0 0 -1
    outer loop
      vertex 8.805 -4.994999999999999 0
      vertex 6.805000000000001 -2.9949999999999997 0
      vertex 6.805000000000001 2.9949999999999997 0
    endloop
  endfacet
  facet normal 1 0 0
    outer loop
      vertex 8.805 -4.994999999999999 0
      vertex 8.805 4.994999999999999 0
      vertex 8.805 -4.994999999999999 7.5
    endloop
  endfacet
  facet normal 0 0 1
    outer loop
      vertex -8.805 -4.994999999999999 7.5
      vertex 8.805 -4.994999999999999 7.5
      vertex 3.5149999999999997 -4.095 7.5
    endloop
  endfacet
  facet normal 0 0 1
    outer loop
      vertex 8.805 -4.994999999999999 7.5
      vertex 3.5149999999999997 -2.9949999999999997 7.5
      vertex 3.5149999999999997 -4.095 7.5
    endloop
  endfacet
  facet normal 0 0 1
    outer loop
      vertex 8.805 -4.994999999999999 7.5
      vertex 6.805000000000001 -2.9949999999999997 7.5
      vertex 3.5149999999999997 -2.9949999999999997 7.5
    endloop
  endfacet
  facet normal 0 0 1
    outer loop
      vertex 8.805 -4.994999999999999 7.5
      vertex 8.805 4.994999999999999 7.5
      vertex 6.805000000000001 -2.9949999999999997 7.5
    endloop
  endfacet
  facet normal 0 0 -1
    outer loop
      vertex 8.805 4.994999999999999 0
      vertex 6.805000000000001 2.9949999999999997 0
      vertex -6.805000000000001 2.9949999999999997 0
    endloop
  endfacet
  facet normal 0 0 -1
    outer loop
      vertex 8.805 -4.994999999999999 0
      vertex 6.805000000000001 2.9949999999999997 0
      vertex 8.805 4.994999999999999 0
    endloop
  endfacet
  facet normal 0 1 0
    outer loop
      vertex -8.805 4.994999999999999 7.5
      vertex 8.805 4.994999999999999 7.5
      vertex 8.805 4.994999999999999 0
    endloop
  endfacet
  facet normal 0 0 1
    outer loop
      vertex -8.805 4.994999999999999 7.5
      vertex 6.805000000000001 2.9949999999999997 7.5
      vertex 8.805 4.994999999999999 7.5
    endloop
  endfacet
  facet normal 1 0 0
    outer loop
      vertex 8.805 -4.994999999999999 7.5
      vertex 8.805 4.994999999999999 0
      vertex 8.805 4.994999999999999 7.5
    endloop
  endfacet
  facet normal 0 0 1
    outer loop
      vertex 8.805 4.994999999999999 7.5
      vertex 6.805000000000001 2.9949999999999997 7.5
      vertex 6.805000000000001 -2.9949999999999997 7.5
    endloop
  endfacet
endsolid OpenSCAD_Model
