solid OpenSCAD_Model
  facet normal 0 1 0
    outer loop
      vertex -4.265000000000001 -2.9949999999999997 7.5
      vertex 4.265000000000001 -2.9949999999999997 0
      vertex -4.265000000000001 -2.9949999999999997 0
    endloop
  endfacet
  facet normal 1 0 0
    outer loop
      vertex -4.265000000000001 -2.9949999999999997 7.5
      vertex -4.265000000000001 -2.9949999999999997 0
      vertex -4.265000000000001 2.9949999999999997 7.5
    endloop
  endfacet
  facet normal 1 0 0
    outer loop
      vertex -4.265000000000001 2.9949999999999997 7.5
      vertex -4.265000000000001 -2.9949999999999997 0
      vertex -4.265000000000001 2.9949999999999997 0
    endloop
  endfacet
  facet normal 0 -1 0
    outer loop
      vertex -4.265000000000001 2.9949999999999997 0
      vertex -0.975 2.9949999999999997 0
      vertex -0.975 2.9949999999999997 7.5
    endloop
  endfacet
  facet normal 0 -1 0
    outer loop
      vertex -4.265000000000001 2.9949999999999997 7.5
      vertex -4.265000000000001 2.9949999999999997 0
      vertex -0.975 2.9949999999999997 7.5
    endloop
  endfacet
  facet normal -1 0 0
    outer loop
      vertex 4.265000000000001 -2.9949999999999997 0
      vertex 4.265000000000001 -2.9949999999999997 7.5
      vertex 4.265000000000001 2.9949999999999997 0
    endloop
  endfacet
  facet normal 0 1 0
    outer loop
      vertex -4.265000000000001 -2.9949999999999997 7.5
      vertex 4.265000000000001 -2.9949999999999997 7.5
      vertex 4.265000000000001 -2.9949999999999997 0
    endloop
  endfacet
  facet normal 0 -1 0
    outer loop
      vertex 4.265000000000001 2.9949999999999997 0
      vertex 4.265000000000001 2.9949999999999997 7.5
      vertex 0.975 2.9949999999999997 0
    endloop
  endfacet
  facet normal 0 -1 0
    outer loop
      vertex 0.975 2.9949999999999997 0
      vertex 4.265000000000001 2.9949999999999997 7.5
      vertex 0.975 2.9949999999999997 7.5
    endloop
  endfacet
  facet normal -1 0 0
    outer loop
      vertex 4.265000000000001 2.9949999999999997 0
      vertex 4.265000000000001 -2.9949999999999997 7.5
      vertex 4.265000000000001 2.9949999999999997 7.5
    endloop
  endfacet
  facet normal 1 0 0
    outer loop
      vertex -0.975 2.9949999999999997 0
      vertex -0.975 4.095 0
      vertex -0.975 4.095 7.5
    endloop
  endfacet
  facet normal 1 0 0
    outer loop
      vertex -0.975 2.9949999999999997 0
      vertex -0.975 4.095 7.5
      vertex -0.975 2.9949999999999997 7.5
    endloop
  endfacet
  facet normal 0 -1 0
    outer loop
      vertex -0.975 4.095 0
      vertex 0.975 4.095 7.5
      vertex -0.975 4.095 7.5
    endloop
  endfacet
  facet normal -1 0 0
    outer loop
      vertex 0.975 4.095 0
      vertex 0.975 2.9949999999999997 0
      vertex 0.975 2.9949999999999997 7.5
    endloop
  endfacet
  facet normal 0 -1 0
    outer loop
      vertex -0.975 4.095 0
      vertex 0.975 4.095 0
      vertex 0.975 4.095 7.5
    endloop
  endfacet
  facet normal -1 0 0
    outer loop
      vertex 0.975 4.095 0
      vertex 0.975 2.9949999999999997 7.5
      vertex 0.975 4.095 7.5
    endloop
  endfacet
  facet normal 0 0 -1
    outer loop
      vertex -6.265000000000001 -4.994999999999999 0
      vertex -6.265000000000001 4.994999999999999 0
      vertex -4.265000000000001 -2.9949999999999997 0
    endloop
  endfacet
  facet normal 0 0 -1
    outer loop
      vertex -6.265000000000001 -4.994999999999999 0
      vertex -4.265000000000001 -2.9949999999999997 0
      vertex 4.265000000000001 -2.9949999999999997 0
    endloop
  endfacet
  facet normal -1 0 0
    outer loop
      vertex -6.265000000000001 -4.994999999999999 0
      vertex -6.265000000000001 -4.994999999999999 7.5
      vertex -6.265000000000001 4.994999999999999 7.5
    endloop
  endfacet
  facet normal 0 0 1
    outer loop
      vertex -6.265000000000001 -4.994999999999999 7.5
      vertex -4.265000000000001 -2.9949999999999997 7.5
      vertex -4.265000000000001 2.9949999999999997 7.5
    endloop
  endfacet
  facet normal 0 -1 0
    outer loop
      vertex -6.265000000000001 -4.994999999999999 0
      vertex 6.265000000000001 -4.994999999999999 7.5
      vertex -6.265000000000001 -4.994999999999999 7.5
    endloop
  endfacet
  facet normal 0 0 1
    outer loop
      vertex -6.265000000000001 -4.994999999999999 7.5
      vertex 6.265000000000001 -4.994999999999999 7.5
      vertex -4.265000000000001 -2.9949999999999997 7.5
    endloop
  endfacet
  facet normal 0 0 -1
    outer loop
      vertex -6.265000000000001 4.994999999999999 0
      vertex -4.265000000000001 2.9949999999999997 0
      vertex -4.265000000000001 -2.9949999999999997 0
    endloop
  endfacet
  facet normal -1 0 0
    outer loop
      vertex -6.265000000000001 -4.994999999999999 0
      vertex -6.265000000000001 4.994999999999999 7.5
      vertex -6.265000000000001 4.994999999999999 0
    endloop
  endfacet
  facet normal 0 0 -1
    outer loop
      vertex -6.265000000000001 4.994999999999999 0
      vertex -0.975 4.095 0
      vertex -4.265000000000001 2.9949999999999997 0
    endloop
  endfacet
  facet normal 0 0 -1
    outer loop
      vertex -0.975 2.9949999999999997 0
      vertex -4.265000000000001 2.9949999999999997 0
      vertex -0.975 4.095 0
    endloop
  endfacet
  facet normal 0 0 -1
    outer loop
      vertex -6.265000000000001 4.994999999999999 0
      vertex 0.975 4.095 0
      vertex -0.975 4.095 0
    endloop
  endfacet
  facet normal 0 1 0
    outer loop
      vertex -6.265000000000001 4.994999999999999 0
      vertex -6.265000000000001 4.994999999999999 7.5
      vertex 6.265000000000001 4.994999999999999 0
    endloop
  endfacet
  facet normal 0 0 1
    outer loop
      vertex -6.265000000000001 -4.994999999999999 7.5
      vertex -4.265000000000001 2.9949999999999997 7.5
      vertex -6.265000000000001 4.994999999999999 7.5
    endloop
  endfacet
  facet normal 0 0 1
    outer loop
      vertex -6.265000000000001 4.994999999999999 7.5
      vertex -4.265000000000001 2.9949999999999997 7.5
      vertex -0.975 2.9949999999999997 7.5
    endloop
  endfacet
  facet normal 0 0 1
    outer loop
      vertex -6.265000000000001 4.994999999999999 7.5
      vertex -0.975 2.9949999999999997 7.5
      vertex -0.975 4.095 7.5
    endloop
  endfacet
  facet normal 0 0 1
    outer loop
      vertex -6.265000000000001 4.994999999999999 7.5
      vertex -0.975 4.095 7.5
      vertex 6.265000000000001 4.994999999999999 7.5
    endloop
  endfacet
  facet normal 0 0 -1
    outer loop
      vertex -6.265000000000001 -4.994999999999999 0
      vertex 4.265000000000001 -2.9949999999999997 0
      vertex 6.265000000000001 -4.994999999999999 0
    endloop
  endfacet
  facet normal 0 -1 0
    outer loop
      vertex -6.265000000000001 -4.994999999999999 0
      vertex 6.265000000000001 -4.994999999999999 0
      vertex 6.265000000000001 -4.994999999999999 7.5
    endloop
  endfacet
  facet normal 0 0 -1
    outer loop
      vertex 6.265000000000001 -4.994999999999999 0
      vertex 4.265000000000001 -2.9949999999999997 0
      vertex 4.265000000000001 2.9949999999999997 0
    endloop
  endfacet
  facet normal 1 0 0
    outer loop
      vertex 6.265000000000001 -4.994999999999999 0
      vertex 6.265000000000001 4.994999999999999 0
      vertex 6.265000000000001 -4.994999999999999 7.5
    endloop
  endfacet
  facet normal 0 0 1
    outer loop
      vertex 6.265000000000001 -4.994999999999999 7.5
      vertex 4.265000000000001 -2.9949999999999997 7.5
      vertex -4.265000000000001 -2.9949999999999997 7.5
    endloop
  endfacet
  facet normal 0 0 1
    outer loop
      vertex 6.265000000000001 -4.994999999999999 7.5
      vertex 6.265000000000001 4.994999999999999 7.5
      vertex 4.265000000000001 -2.9949999999999997 7.5
    endloop
  endfacet
  facet normal 0 0 -1
    outer loop
      vertex -6.265000000000001 4.994999999999999 0
      vertex 6.265000000000001 4.994999999999999 0
      vertex 0.975 4.095 0
    endloop
  endfacet
  facet normal 0 0 -1
    outer loop
      vertex 6.265000000000001 4.994999999999999 0
      vertex 0.975 2.9949999999999997 0
      vertex 0.975 4.095 0
    endloop
  endfacet
  facet normal 0 0 -1
    outer loop
      vertex 6.265000000000001 -4.994999999999999 0
      vertex 4.265000000000001 2.9949999999999997 0
      vertex 6.265000000000001 4.994999999999999 0
    endloop
  endfacet
  facet normal 0 0 -1
    outer loop
      vertex 6.265000000000001 4.994999999999999 0
      vertex 4.265000000000001 2.9949999999999997 0
      vertex 0.975 2.9949999999999997 0
    endloop
  endfacet
  facet normal 0 1 0
    outer loop
      vertex -6.265000000000001 4.994999999999999 7.5
      vertex 6.265000000000001 4.994999999999999 7.5
      vertex 6.265000000000001 4.994999999999999 0
    endloop
  endfacet
  facet normal 0 0 1
    outer loop
      vertex 0.975 2.9949999999999997 7.5
      vertex 4.265000000000001 2.9949999999999997 7.5
      vertex 0.975 4.095 7.5
    endloop
  endfacet
  facet normal 0 0 1
    outer loop
      vertex 6.265000000000001 4.994999999999999 7.5
      vertex -0.975 4.095 7.5
      vertex 0.975 4.095 7.5
    endloop
  endfacet
  facet normal 1 0 0
    outer loop
      vertex 6.265000000000001 -4.994999999999999 7.5
      vertex 6.265000000000001 4.994999999999999 0
      vertex 6.265000000000001 4.994999999999999 7.5
    endloop
  endfacet
  facet normal 0 0 1
    outer loop
      vertex 6.265000000000001 4.994999999999999 7.5
      vertex 4.265000000000001 2.9949999999999997 7.5
      vertex 4.265000000000001 -2.9949999999999997 7.5
    endloop
  endfacet
  facet normal 0 0 1
    outer loop
      vertex 6.265000000000001 4.994999999999999 7.5
      vertex 0.975 4.095 7.5
      vertex 4.265000000000001 2.9949999999999997 7.5
    endloop
  endfacet
endsolid OpenSCAD_Model
