solid OpenSCAD_Model
  facet normal 0 0 -1
    outer loop
      vertex -1.27 -1.27 0
      vertex -0.725 0.725 0
      vertex -0.725 -0.725 0
    endloop
  endfacet
  facet normal 0 0 -1
    outer loop
      vertex -1.27 -1.27 0
      vertex -0.725 -0.725 0
      vertex 0.725 -0.725 0
    endloop
  endfacet
  facet normal -1 0 0
    outer loop
      vertex -1.27 -1.27 0
      vertex -1.27 -1.27 14
      vertex -1.27 1.27 14
    endloop
  endfacet
  facet normal 0 0 1
    outer loop
      vertex -1.27 -1.27 14
      vertex -0.725 -0.725 14
      vertex -1.27 1.27 14
    endloop
  endfacet
  facet normal 0 -1 0
    outer loop
      vertex -1.27 -1.27 0
      vertex 1.27 -1.27 14
      vertex -1.27 -1.27 14
    endloop
  endfacet
  facet normal 0 0 1
    outer loop
      vertex -1.27 -1.27 14
      vertex 1.27 -1.27 14
      vertex -0.725 -0.725 14
    endloop
  endfacet
  facet normal 0 0 -1
    outer loop
      vertex -1.27 -1.27 0
      vertex -1.27 1.27 0
      vertex -0.725 0.725 0
    endloop
  endfacet
  facet normal -1 0 0
    outer loop
      vertex -1.27 -1.27 0
      vertex -1.27 1.27 14
      vertex -1.27 1.27 0
    endloop
  endfacet
  facet normal 0 0 -1
    outer loop
      vertex -1.27 1.27 0
      vertex 1.27 1.27 0
      vertex -0.725 0.725 0
    endloop
  endfacet
  facet normal 0 1 0
    outer loop
      vertex -1.27 1.27 0
      vertex -1.27 1.27 14
      vertex 1.27 1.27 0
    endloop
  endfacet
  facet normal 0 0 1
    outer loop
      vertex -1.27 1.27 14
      vertex -0.725 -0.725 14
      vertex -0.725 0.725 14
    endloop
  endfacet
  facet normal 0 0 1
    outer loop
      vertex -1.27 1.27 14
      vertex -0.725 0.725 14
      vertex 0.725 0.725 14
    endloop
  endfacet
  facet normal 0 0 -1
    outer loop
      vertex -1.27 -1.27 0
      vertex 0.725 -0.725 0
      vertex 1.27 -1.27 0
    endloop
  endfacet
  facet normal 0 -1 0
    outer loop
      vertex -1.27 -1.27 0
      vertex 1.27 -1.27 0
      vertex 1.27 -1.27 14
    endloop
  endfacet
  facet normal 0 0 -1
    outer loop
      vertex 1.27 -1.27 0
      vertex 0.725 -0.725 0
      vertex 1.27 1.27 0
    endloop
  endfacet
  facet normal 1 0 0
    outer loop
      vertex 1.27 -1.27 0
      vertex 1.27 1.27 0
      vertex 1.27 -1.27 14
    endloop
  endfacet
  facet normal 0 0 1
    outer loop
      vertex 1.27 -1.27 14
      vertex 0.725 -0.725 14
      vertex -0.725 -0.725 14
    endloop
  endfacet
  facet normal 0 0 1
    outer loop
      vertex 1.27 -1.27 14
      vertex 0.725 0.725 14
      vertex 0.725 -0.725 14
    endloop
  endfacet
  facet normal 0 0 -1
    outer loop
      vertex 1.27 1.27 0
      vertex 0.725 0.725 0
      vertex -0.725 0.725 0
    endloop
  endfacet
  facet normal 0 0 -1
    outer loop
      vertex 1.27 1.27 0
      vertex 0.725 -0.725 0
      vertex 0.725 0.725 0
    endloop
  endfacet
  facet normal 0 1 0
    outer loop
      vertex -1.27 1.27 14
      vertex 1.27 1.27 14
      vertex 1.27 1.27 0
    endloop
  endfacet
  facet normal 0 0 1
    outer loop
      vertex -1.27 1.27 14
      vertex 0.725 0.725 14
      vertex 1.27 1.27 14
    endloop
  endfacet
  facet normal 1 0 0
    outer loop
      vertex 1.27 -1.27 14
      vertex 1.27 1.27 0
      vertex 1.27 1.27 14
    endloop
  endfacet
  facet normal 0 0 1
    outer loop
      vertex 1.27 -1.27 14
      vertex 1.27 1.27 14
      vertex 0.725 0.725 14
    endloop
  endfacet
  facet normal 0 1 0
    outer loop
      vertex -0.725 -0.725 14
      vertex 0.725 -0.725 0
      vertex -0.725 -0.725 0
    endloop
  endfacet
  facet normal 1 0 0
    outer loop
      vertex -0.725 -0.725 14
      vertex -0.725 -0.725 0
      vertex -0.725 0.725 14
    endloop
  endfacet
  facet normal 1 0 0
    outer loop
      vertex -0.725 0.725 14
      vertex -0.725 -0.725 0
      vertex -0.725 0.725 0
    endloop
  endfacet
  facet normal 0 -1 0
    outer loop
      vertex 0.725 0.725 14
      vertex -0.725 0.725 14
      vertex -0.725 0.725 0
    endloop
  endfacet
  facet normal -1 0 0
    outer loop
      vertex 0.725 -0.725 0
      vertex 0.725 -0.725 14
      vertex 0.725 0.725 0
    endloop
  endfacet
  facet normal 0 1 0
    outer loop
      vertex -0.725 -0.725 14
      vertex 0.725 -0.725 14
      vertex 0.725 -0.725 0
    endloop
  endfacet
  facet normal 0 -1 0
    outer loop
      vertex -0.725 0.725 0
      vertex 0.725 0.725 0
      vertex 0.725 0.725 14
    endloop
  endfacet
  facet normal -1 0 0
    outer loop
      vertex 0.725 0.725 0
      vertex 0.725 -0.725 14
      vertex 0.725 0.725 14
    endloop
  endfacet
endsolid OpenSCAD_Model
