<?xml version="1.0" encoding="utf-8"?>
<COLLADA xmlns="http://www.collada.org/2005/11/COLLADASchema" version="1.4.1">
  <asset><up_axis>Z_UP</up_axis></asset>
  <library_geometries>
    <geometry id="gate_leaf">
      <mesh>
        <source id="P">
          <float_array id="PA" count="1944">-0.50071 0.00000 2.16071 -0.49929 0.00000 2.15929 -0.45929 0.00000 2.19929 -0.46071 0.00000 2.20071 -0.50071 0.00000 2.12071 -0.49929 0.00000 2.11929 -0.41929 0.00000 2.19929 -0.42071 0.00000 2.20071 -0.50071 0.00000 2.08071 -0.49929 0.00000 2.07929 -0.37929 0.00000 2.19929 -0.38071 0.00000 2.20071 -0.50071 0.00000 2.04071 -0.49929 0.00000 2.03929 -0.33929 0.00000 2.19929 -0.34071 0.00000 2.20071 -0.50071 0.00000 2.00071 -0.49929 0.00000 1.99929 -0.29929 0.00000 2.19929 -0.30071 0.00000 2.20071 -0.50071 0.00000 1.96071 -0.49929 0.00000 1.95929 -0.25929 0.00000 2.19929 -0.26071 0.00000 2.20071 -0.50071 0.00000 1.92071 -0.49929 0.00000 1.91929 -0.21929 0.00000 2.19929 -0.22071 0.00000 2.20071 -0.50071 0.00000 1.88071 -0.49929 0.00000 1.87929 -0.17929 0.00000 2.19929 -0.18071 0.00000 2.20071 -0.50071 0.00000 1.84071 -0.49929 0.00000 1.83929 -0.13929 0.00000 2.19929 -0.14071 0.00000 2.20071 -0.50071 0.00000 1.80071 -0.49929 0.00000 1.79929 -0.09929 0.00000 2.19929 -0.10071 0.00000 2.20071 -0.50071 0.00000 1.76071 -0.49929 0.00000 1.75929 -0.05929 0.00000 2.19929 -0.06071 0.00000 2.20071 -0.50071 0.00000 1.72071 -0.49929 0.00000 1.71929 -0.01929 0.00000 2.19929 -0.02071 0.00000 2.20071 -0.50071 0.00000 1.68071 -0.49929 0.00000 1.67929 0.02071 0.00000 2.19929 0.01929 0.00000 2.20071 -0.50071 0.00000 1.64071 -0.49929 0.00000 1.63929 0.06071 0.00000 2.19929 0.05929 0.00000 2.20071 -0.50071 0.00000 1.60071 -0.49929 0.00000 1.59929 0.10071 0.00000 2.19929 0.09929 0.00000 2.20071 -0.50071 0.00000 1.56071 -0.49929 0.00000 1.55929 0.14071 0.00000 2.19929 0.13929 0.00000 2.20071 -0.50071 0.00000 1.52071 -0.49929 0.00000 1.51929 0.18071 0.00000 2.19929 0.17929 0.00000 2.20071 -0.50071 0.00000 1.48071 -0.49929 0.00000 1.47929 0.22071 0.00000 2.19929 0.21929 0.00000 2.20071 -0.50071 0.00000 1.44071 -0.49929 0.00000 1.43929 0.26071 0.00000 2.19929 0.25929 0.00000 2.20071 -0.50071 0.00000 1.40071 -0.49929 0.00000 1.39929 0.30071 0.00000 2.19929 0.29929 0.00000 2.20071 -0.50071 0.00000 1.36071 -0.49929 0.00000 1.35929 0.34071 0.00000 2.19929 0.33929 0.00000 2.20071 -0.50071 0.00000 1.32071 -0.49929 0.00000 1.31929 0.38071 0.00000 2.19929 0.37929 0.00000 2.20071 -0.50071 0.00000 1.28071 -0.49929 0.00000 1.27929 0.42071 0.00000 2.19929 0.41929 0.00000 2.20071 -0.50071 0.00000 1.24071 -0.49929 0.00000 1.23929 0.46071 0.00000 2.19929 0.45929 0.00000 2.20071 -0.50071 0.00000 1.20071 -0.49929 0.00000 1.19929 0.50071 0.00000 2.19929 0.49929 0.00000 2.20071 -0.50071 0.00000 1.16071 -0.49929 0.00000 1.15929 0.50071 0.00000 2.15929 0.49929 0.00000 2.16071 -0.50071 0.00000 1.12071 -0.49929 0.00000 1.11929 0.50071 0.00000 2.11929 0.49929 0.00000 2.12071 -0.50071 0.00000 1.08071 -0.49929 0.00000 1.07929 0.50071 0.00000 2.07929 0.49929 0.00000 2.08071 -0.50071 0.00000 1.04071 -0.49929 0.00000 1.03929 0.50071 0.00000 2.03929 0.49929 0.00000 2.04071 -0.50071 0.00000 1.00071 -0.49929 0.00000 0.99929 0.50071 0.00000 1.99929 0.49929 0.00000 2.00071 -0.50071 0.00000 0.96071 -0.49929 0.00000 0.95929 0.50071 0.00000 1.95929 0.49929 0.00000 1.96071 -0.50071 0.00000 0.92071 -0.49929 0.00000 0.91929 0.50071 0.00000 1.91929 0.49929 0.00000 1.92071 -0.50071 0.00000 0.88071 -0.49929 0.00000 0.87929 0.50071 0.00000 1.87929 0.49929 0.00000 1.88071 -0.50071 0.00000 0.84071 -0.49929 0.00000 0.83929 0.50071 0.00000 1.83929 0.49929 0.00000 1.84071 -0.50071 0.00000 0.80071 -0.49929 0.00000 0.79929 0.50071 0.00000 1.79929 0.49929 0.00000 1.80071 -0.50071 0.00000 0.76071 -0.49929 0.00000 0.75929 0.50071 0.00000 1.75929 0.49929 0.00000 1.76071 -0.50071 0.00000 0.72071 -0.49929 0.00000 0.71929 0.50071 0.00000 1.71929 0.49929 0.00000 1.72071 -0.50071 0.00000 0.68071 -0.49929 0.00000 0.67929 0.50071 0.00000 1.67929 0.49929 0.00000 1.68071 -0.50071 0.00000 0.64071 -0.49929 0.00000 0.63929 0.50071 0.00000 1.63929 0.49929 0.00000 1.64071 -0.50071 0.00000 0.60071 -0.49929 0.00000 0.59929 0.50071 0.00000 1.59929 0.49929 0.00000 1.60071 -0.50071 0.00000 0.56071 -0.49929 0.00000 0.55929 0.50071 0.00000 1.55929 0.49929 0.00000 1.56071 -0.50071 0.00000 0.52071 -0.49929 0.00000 0.51929 0.50071 0.00000 1.51929 0.49929 0.00000 1.52071 -0.50071 0.00000 0.48071 -0.49929 0.00000 0.47929 0.50071 0.00000 1.47929 0.49929 0.00000 1.48071 -0.50071 0.00000 0.44071 -0.49929 0.00000 0.43929 0.50071 0.00000 1.43929 0.49929 0.00000 1.44071 -0.50071 0.00000 0.40071 -0.49929 0.00000 0.39929 0.50071 0.00000 1.39929 0.49929 0.00000 1.40071 -0.50071 0.00000 0.36071 -0.49929 0.00000 0.35929 0.50071 0.00000 1.35929 0.49929 0.00000 1.36071 -0.50071 0.00000 0.32071 -0.49929 0.00000 0.31929 0.50071 0.00000 1.31929 0.49929 0.00000 1.32071 -0.50071 0.00000 0.28071 -0.49929 0.00000 0.27929 0.50071 0.00000 1.27929 0.49929 0.00000 1.28071 -0.50071 0.00000 0.24071 -0.49929 0.00000 0.23929 0.50071 0.00000 1.23929 0.49929 0.00000 1.24071 -0.50071 0.00000 0.20071 -0.49929 0.00000 0.19929 0.50071 0.00000 1.19929 0.49929 0.00000 1.20071 -0.50071 0.00000 0.16071 -0.49929 0.00000 0.15929 0.50071 0.00000 1.15929 0.49929 0.00000 1.16071 -0.50071 0.00000 0.12071 -0.49929 0.00000 0.11929 0.50071 0.00000 1.11929 0.49929 0.00000 1.12071 -0.50071 0.00000 0.08071 -0.49929 0.00000 0.07929 0.50071 0.00000 1.07929 0.49929 0.00000 1.08071 -0.50071 0.00000 0.04071 -0.49929 0.00000 0.03929 0.50071 0.00000 1.03929 0.49929 0.00000 1.04071 -0.50071 0.00000 0.00071 -0.49929 0.00000 -0.00071 0.50071 0.00000 0.99929 0.49929 0.00000 1.00071 -0.46071 0.00000 0.00071 -0.45929 0.00000 -0.00071 0.50071 0.00000 0.95929 0.49929 0.00000 0.96071 -0.42071 0.00000 0.00071 -0.41929 0.00000 -0.00071 0.50071 0.00000 0.91929 0.49929 0.00000 0.92071 -0.38071 0.00000 0.00071 -0.37929 0.00000 -0.00071 0.50071 0.00000 0.87929 0.49929 0.00000 0.88071 -0.34071 0.00000 0.00071 -0.33929 0.00000 -0.00071 0.50071 0.00000 0.83929 0.49929 0.00000 0.84071 -0.30071 0.00000 0.00071 -0.29929 0.00000 -0.00071 0.50071 0.00000 0.79929 0.49929 0.00000 0.80071 -0.26071 0.00000 0.00071 -0.25929 0.00000 -0.00071 0.50071 0.00000 0.75929 0.49929 0.00000 0.76071 -0.22071 0.00000 0.00071 -0.21929 0.00000 -0.00071 0.50071 0.00000 0.71929 0.49929 0.00000 0.72071 -0.18071 0.00000 0.00071 -0.17929 0.00000 -0.00071 0.50071 0.00000 0.67929 0.49929 0.00000 0.68071 -0.14071 0.00000 0.00071 -0.13929 0.00000 -0.00071 0.50071 0.00000 0.63929 0.49929 0.00000 0.64071 -0.10071 0.00000 0.00071 -0.09929 0.00000 -0.00071 0.50071 0.00000 0.59929 0.49929 0.00000 0.60071 -0.06071 0.00000 0.00071 -0.05929 0.00000 -0.00071 0.50071 0.00000 0.55929 0.49929 0.00000 0.56071 -0.02071 0.00000 0.00071 -0.01929 0.00000 -0.00071 0.50071 0.00000 0.51929 0.49929 0.00000 0.52071 0.01929 0.00000 0.00071 0.02071 0.00000 -0.00071 0.50071 0.00000 0.47929 0.49929 0.00000 0.48071 0.05929 0.00000 0.00071 0.06071 0.00000 -0.00071 0.50071 0.00000 0.43929 0.49929 0.00000 0.44071 0.09929 0.00000 0.00071 0.10071 0.00000 -0.00071 0.50071 0.00000 0.39929 0.49929 0.00000 0.40071 0.13929 0.00000 0.00071 0.14071 0.00000 -0.00071 0.50071 0.00000 0.35929 0.49929 0.00000 0.36071 0.17929 0.00000 0.00071 0.18071 0.00000 -0.00071 0.50071 0.00000 0.31929 0.49929 0.00000 0.32071 0.21929 0.00000 0.00071 0.22071 0.00000 -0.00071 0.50071 0.00000 0.27929 0.49929 0.00000 0.28071 0.25929 0.00000 0.00071 0.26071 0.00000 -0.00071 0.50071 0.00000 0.23929 0.49929 0.00000 0.24071 0.29929 0.00000 0.00071 0.30071 0.00000 -0.00071 0.50071 0.00000 0.19929 0.49929 0.00000 0.20071 0.33929 0.00000 0.00071 0.34071 0.00000 -0.00071 0.50071 0.00000 0.15929 0.49929 0.00000 0.16071 0.37929 0.00000 0.00071 0.38071 0.00000 -0.00071 0.50071 0.00000 0.11929 0.49929 0.00000 0.12071 0.41929 0.00000 0.00071 0.42071 0.00000 -0.00071 0.50071 0.00000 0.07929 0.49929 0.00000 0.08071 0.45929 0.00000 0.00071 0.46071 0.00000 -0.00071 0.50071 0.00000 0.03929 0.49929 0.00000 0.04071 -0.49929 0.00000 0.04071 -0.50071 0.00000 0.03929 -0.46071 0.00000 -0.00071 -0.45929 0.00000 0.00071 -0.49929 0.00000 0.08071 -0.50071 0.00000 0.07929 -0.42071 0.00000 -0.00071 -0.41929 0.00000 0.00071 -0.49929 0.00000 0.12071 -0.50071 0.00000 0.11929 -0.38071 0.00000 -0.00071 -0.37929 0.00000 0.00071 -0.49929 0.00000 0.16071 -0.50071 0.00000 0.15929 -0.34071 0.00000 -0.00071 -0.33929 0.00000 0.00071 -0.49929 0.00000 0.20071 -0.50071 0.00000 0.19929 -0.30071 0.00000 -0.00071 -0.29929 0.00000 0.00071 -0.49929 0.00000 0.24071 -0.50071 0.00000 0.23929 -0.26071 0.00000 -0.00071 -0.25929 0.00000 0.00071 -0.49929 0.00000 0.28071 -0.50071 0.00000 0.27929 -0.22071 0.00000 -0.00071 -0.21929 0.00000 0.00071 -0.49929 0.00000 0.32071 -0.50071 0.00000 0.31929 -0.18071 0.00000 -0.00071 -0.17929 0.00000 0.00071 -0.49929 0.00000 0.36071 -0.50071 0.00000 0.35929 -0.14071 0.00000 -0.00071 -0.13929 0.00000 0.00071 -0.49929 0.00000 0.40071 -0.50071 0.00000 0.39929 -0.10071 0.00000 -0.00071 -0.09929 0.00000 0.00071 -0.49929 0.00000 0.44071 -0.50071 0.00000 0.43929 -0.06071 0.00000 -0.00071 -0.05929 0.00000 0.00071 -0.49929 0.00000 0.48071 -0.50071 0.00000 0.47929 -0.02071 0.00000 -0.00071 -0.01929 0.00000 0.00071 -0.49929 0.00000 0.52071 -0.50071 0.00000 0.51929 0.01929 0.00000 -0.00071 0.02071 0.00000 0.00071 -0.49929 0.00000 0.56071 -0.50071 0.00000 0.55929 0.05929 0.00000 -0.00071 0.06071 0.00000 0.00071 -0.49929 0.00000 0.60071 -0.50071 0.00000 0.59929 0.09929 0.00000 -0.00071 0.10071 0.00000 0.00071 -0.49929 0.00000 0.64071 -0.50071 0.00000 0.63929 0.13929 0.00000 -0.00071 0.14071 0.00000 0.00071 -0.49929 0.00000 0.68071 -0.50071 0.00000 0.67929 0.17929 0.00000 -0.00071 0.18071 0.00000 0.00071 -0.49929 0.00000 0.72071 -0.50071 0.00000 0.71929 0.21929 0.00000 -0.00071 0.22071 0.00000 0.00071 -0.49929 0.00000 0.76071 -0.50071 0.00000 0.75929 0.25929 0.00000 -0.00071 0.26071 0.00000 0.00071 -0.49929 0.00000 0.80071 -0.50071 0.00000 0.79929 0.29929 0.00000 -0.00071 0.30071 0.00000 0.00071 -0.49929 0.00000 0.84071 -0.50071 0.00000 0.83929 0.33929 0.00000 -0.00071 0.34071 0.00000 0.00071 -0.49929 0.00000 0.88071 -0.50071 0.00000 0.87929 0.37929 0.00000 -0.00071 0.38071 0.00000 0.00071 -0.49929 0.00000 0.92071 -0.50071 0.00000 0.91929 0.41929 0.00000 -0.00071 0.42071 0.00000 0.00071 -0.49929 0.00000 0.96071 -0.50071 0.00000 0.95929 0.45929 0.00000 -0.00071 0.46071 0.00000 0.00071 -0.49929 0.00000 1.00071 -0.50071 0.00000 0.99929 0.49929 0.00000 -0.00071 0.50071 0.00000 0.00071 -0.49929 0.00000 1.04071 -0.50071 0.00000 1.03929 0.49929 0.00000 0.03929 0.50071 0.00000 0.04071 -0.49929 0.00000 1.08071 -0.50071 0.00000 1.07929 0.49929 0.00000 0.07929 0.50071 0.00000 0.08071 -0.49929 0.00000 1.12071 -0.50071 0.00000 1.11929 0.49929 0.00000 0.11929 0.50071 0.00000 0.12071 -0.49929 0.00000 1.16071 -0.50071 0.00000 1.15929 0.49929 0.00000 0.15929 0.50071 0.00000 0.16071 -0.49929 0.00000 1.20071 -0.50071 0.00000 1.19929 0.49929 0.00000 0.19929 0.50071 0.00000 0.20071 -0.49929 0.00000 1.24071 -0.50071 0.00000 1.23929 0.49929 0.00000 0.23929 0.50071 0.00000 0.24071 -0.49929 0.00000 1.28071 -0.50071 0.00000 1.27929 0.49929 0.00000 0.27929 0.50071 0.00000 0.28071 -0.49929 0.00000 1.32071 -0.50071 0.00000 1.31929 0.49929 0.00000 0.31929 0.50071 0.00000 0.32071 -0.49929 0.00000 1.36071 -0.50071 0.00000 1.35929 0.49929 0.00000 0.35929 0.50071 0.00000 0.36071 -0.49929 0.00000 1.40071 -0.50071 0.00000 1.39929 0.49929 0.00000 0.39929 0.50071 0.00000 0.40071 -0.49929 0.00000 1.44071 -0.50071 0.00000 1.43929 0.49929 0.00000 0.43929 0.50071 0.00000 0.44071 -0.49929 0.00000 1.48071 -0.50071 0.00000 1.47929 0.49929 0.00000 0.47929 0.50071 0.00000 0.48071 -0.49929 0.00000 1.52071 -0.50071 0.00000 1.51929 0.49929 0.00000 0.51929 0.50071 0.00000 0.52071 -0.49929 0.00000 1.56071 -0.50071 0.00000 1.55929 0.49929 0.00000 0.55929 0.50071 0.00000 0.56071 -0.49929 0.00000 1.60071 -0.50071 0.00000 1.59929 0.49929 0.00000 0.59929 0.50071 0.00000 0.60071 -0.49929 0.00000 1.64071 -0.50071 0.00000 1.63929 0.49929 0.00000 0.63929 0.50071 0.00000 0.64071 -0.49929 0.00000 1.68071 -0.50071 0.00000 1.67929 0.49929 0.00000 0.67929 0.50071 0.00000 0.68071 -0.49929 0.00000 1.72071 -0.50071 0.00000 1.71929 0.49929 0.00000 0.71929 0.50071 0.00000 0.72071 -0.49929 0.00000 1.76071 -0.50071 0.00000 1.75929 0.49929 0.00000 0.75929 0.50071 0.00000 0.76071 -0.49929 0.00000 1.80071 -0.50071 0.00000 1.79929 0.49929 0.00000 0.79929 0.50071 0.00000 0.80071 -0.49929 0.00000 1.84071 -0.50071 0.00000 1.83929 0.49929 0.00000 0.83929 0.50071 0.00000 0.84071 -0.49929 0.00000 1.88071 -0.50071 0.00000 1.87929 0.49929 0.00000 0.87929 0.50071 0.00000 0.88071 -0.49929 0.00000 1.92071 -0.50071 0.00000 1.91929 0.49929 0.00000 0.91929 0.50071 0.00000 0.92071 -0.49929 0.00000 1.96071 -0.50071 0.00000 1.95929 0.49929 0.00000 0.95929 0.50071 0.00000 0.96071 -0.49929 0.00000 2.00071 -0.50071 0.00000 1.99929 0.49929 0.00000 0.99929 0.50071 0.00000 1.00071 -0.49929 0.00000 2.04071 -0.50071 0.00000 2.03929 0.49929 0.00000 1.03929 0.50071 0.00000 1.04071 -0.49929 0.00000 2.08071 -0.50071 0.00000 2.07929 0.49929 0.00000 1.07929 0.50071 0.00000 1.08071 -0.49929 0.00000 2.12071 -0.50071 0.00000 2.11929 0.49929 0.00000 1.11929 0.50071 0.00000 1.12071 -0.49929 0.00000 2.16071 -0.50071 0.00000 2.15929 0.49929 0.00000 1.15929 0.50071 0.00000 1.16071 -0.49929 0.00000 2.20071 -0.50071 0.00000 2.19929 0.49929 0.00000 1.19929 0.50071 0.00000 1.20071 -0.45929 0.00000 2.20071 -0.46071 0.00000 2.19929 0.49929 0.00000 1.23929 0.50071 0.00000 1.24071 -0.41929 0.00000 2.20071 -0.42071 0.00000 2.19929 0.49929 0.00000 1.27929 0.50071 0.00000 1.28071 -0.37929 0.00000 2.20071 -0.38071 0.00000 2.19929 0.49929 0.00000 1.31929 0.50071 0.00000 1.32071 -0.33929 0.00000 2.20071 -0.34071 0.00000 2.19929 0.49929 0.00000 1.35929 0.50071 0.00000 1.36071 -0.29929 0.00000 2.20071 -0.30071 0.00000 2.19929 0.49929 0.00000 1.39929 0.50071 0.00000 1.40071 -0.25929 0.00000 2.20071 -0.26071 0.00000 2.19929 0.49929 0.00000 1.43929 0.50071 0.00000 1.44071 -0.21929 0.00000 2.20071 -0.22071 0.00000 2.19929 0.49929 0.00000 1.47929 0.50071 0.00000 1.48071 -0.17929 0.00000 2.20071 -0.18071 0.00000 2.19929 0.49929 0.00000 1.51929 0.50071 0.00000 1.52071 -0.13929 0.00000 2.20071 -0.14071 0.00000 2.19929 0.49929 0.00000 1.55929 0.50071 0.00000 1.56071 -0.09929 0.00000 2.20071 -0.10071 0.00000 2.19929 0.49929 0.00000 1.59929 0.50071 0.00000 1.60071 -0.05929 0.00000 2.20071 -0.06071 0.00000 2.19929 0.49929 0.00000 1.63929 0.50071 0.00000 1.64071 -0.01929 0.00000 2.20071 -0.02071 0.00000 2.19929 0.49929 0.00000 1.67929 0.50071 0.00000 1.68071 0.02071 0.00000 2.20071 0.01929 0.00000 2.19929 0.49929 0.00000 1.71929 0.50071 0.00000 1.72071 0.06071 0.00000 2.20071 0.05929 0.00000 2.19929 0.49929 0.00000 1.75929 0.50071 0.00000 1.76071 0.10071 0.00000 2.20071 0.09929 0.00000 2.19929 0.49929 0.00000 1.79929 0.50071 0.00000 1.80071 0.14071 0.00000 2.20071 0.13929 0.00000 2.19929 0.49929 0.00000 1.83929 0.50071 0.00000 1.84071 0.18071 0.00000 2.20071 0.17929 0.00000 2.19929 0.49929 0.00000 1.87929 0.50071 0.00000 1.88071 0.22071 0.00000 2.20071 0.21929 0.00000 2.19929 0.49929 0.00000 1.91929 0.50071 0.00000 1.92071 0.26071 0.00000 2.20071 0.25929 0.00000 2.19929 0.49929 0.00000 1.95929 0.50071 0.00000 1.96071 0.30071 0.00000 2.20071 0.29929 0.00000 2.19929 0.49929 0.00000 1.99929 0.50071 0.00000 2.00071 0.34071 0.00000 2.20071 0.33929 0.00000 2.19929 0.49929 0.00000 2.03929 0.50071 0.00000 2.04071 0.38071 0.00000 2.20071 0.37929 0.00000 2.19929 0.49929 0.00000 2.07929 0.50071 0.00000 2.08071 0.42071 0.00000 2.20071 0.41929 0.00000 2.19929 0.49929 0.00000 2.11929 0.50071 0.00000 2.12071 0.46071 0.00000 2.20071 0.45929 0.00000 2.19929 0.49929 0.00000 2.15929 0.50071 0.00000 2.16071 -0.52500 0.00000 0.00000 -0.47500 0.00000 0.00000 -0.47500 0.00000 2.20000 -0.52500 0.00000 2.20000 0.47500 0.00000 0.00000 0.52500 0.00000 0.00000 0.52500 0.00000 2.20000 0.47500 0.00000 2.20000 -0.50000 0.00000 0.02500 -0.50000 0.00000 -0.02500 0.50000 0.00000 -0.02500 0.50000 0.00000 0.02500 -0.50000 0.00000 2.22500 -0.50000 0.00000 2.17500 0.50000 0.00000 2.17500 0.50000 0.00000 2.22500</float_array>
          <technique_common>
            <accessor source="#PA" count="648" stride="3">
              <param name="X" type="float"/>
              <param name="Y" type="float"/>
              <param name="Z" type="float"/>
            </accessor>
          </technique_common>
        </source>
        <source id="N">
          <float_array id="NA" count="1944">0.000000 -1.000000 0.000000 -0.000000 1.000000 -0.000000 0.000000 -1.000000 0.000000 -0.000000 1.000000 -0.000000 0.000000 -1.000000 0.000000 -0.000000 1.000000 -0.000000 0.000000 -1.000000 0.000000 -0.000000 1.000000 -0.000000 0.000000 -1.000000 0.000000 -0.000000 1.000000 -0.000000 0.000000 -1.000000 0.000000 -0.000000 1.000000 -0.000000 0.000000 -1.000000 0.000000 -0.000000 1.000000 -0.000000 0.000000 -1.000000 0.000000 -0.000000 1.000000 -0.000000 0.000000 -1.000000 0.000000 -0.000000 1.000000 -0.000000 0.000000 -1.000000 0.000000 -0.000000 1.000000 -0.000000 0.000000 -1.000000 0.000000 -0.000000 1.000000 -0.000000 0.000000 -1.000000 0.000000 -0.000000 1.000000 -0.000000 0.000000 -1.000000 0.000000 -0.000000 1.000000 -0.000000 0.000000 -1.000000 0.000000 -0.000000 1.000000 -0.000000 0.000000 -1.000000 0.000000 -0.000000 1.000000 -0.000000 0.000000 -1.000000 0.000000 -0.000000 1.000000 -0.000000 0.000000 -1.000000 0.000000 -0.000000 1.000000 -0.000000 0.000000 -1.000000 0.000000 -0.000000 1.000000 -0.000000 0.000000 -1.000000 0.000000 -0.000000 1.000000 -0.000000 0.000000 -1.000000 0.000000 -0.000000 1.000000 -0.000000 0.000000 -1.000000 0.000000 -0.000000 1.000000 -0.000000 0.000000 -1.000000 0.000000 -0.000000 1.000000 -0.000000 0.000000 -1.000000 0.000000 -0.000000 1.000000 -0.000000 0.000000 -1.000000 0.000000 -0.000000 1.000000 -0.000000 0.000000 -1.000000 0.000000 -0.000000 1.000000 -0.000000 0.000000 -1.000000 0.000000 -0.000000 1.000000 -0.000000 0.000000 -1.000000 0.000000 -0.000000 1.000000 -0.000000 0.000000 -1.000000 0.000000 -0.000000 1.000000 -0.000000 0.000000 -1.000000 0.000000 -0.000000 1.000000 -0.000000 0.000000 -1.000000 0.000000 -0.000000 1.000000 -0.000000 0.000000 -1.000000 0.000000 -0.000000 1.000000 -0.000000 0.000000 -1.000000 0.000000 -0.000000 1.000000 -0.000000 0.000000 -1.000000 0.000000 -0.000000 1.000000 -0.000000 0.000000 -1.000000 0.000000 -0.000000 1.000000 -0.000000 0.000000 -1.000000 0.000000 -0.000000 1.000000 -0.000000 0.000000 -1.000000 0.000000 -0.000000 1.000000 -0.000000 0.000000 -1.000000 0.000000 -0.000000 1.000000 -0.000000 0.000000 -1.000000 0.000000 -0.000000 1.000000 -0.000000 0.000000 -1.000000 0.000000 -0.000000 1.000000 -0.000000 0.000000 -1.000000 0.000000 -0.000000 1.000000 -0.000000 0.000000 -1.000000 0.000000 -0.000000 1.000000 -0.000000 0.000000 -1.000000 0.000000 -0.000000 1.000000 -0.000000 0.000000 -1.000000 0.000000 -0.000000 1.000000 -0.000000 0.000000 -1.000000 0.000000 -0.000000 1.000000 -0.000000 0.000000 -1.000000 0.000000 -0.000000 1.000000 -0.000000 0.000000 -1.000000 0.000000 -0.000000 1.000000 -0.000000 0.000000 -1.000000 0.000000 -0.000000 1.000000 -0.000000 0.000000 -1.000000 0.000000 -0.000000 1.000000 -0.000000 0.000000 -1.000000 0.000000 -0.000000 1.000000 -0.000000 0.000000 -1.000000 0.000000 -0.000000 1.000000 -0.000000 0.000000 -1.000000 0.000000 -0.000000 1.000000 -0.000000 0.000000 -1.000000 0.000000 -0.000000 1.000000 -0.000000 0.000000 -1.000000 0.000000 -0.000000 1.000000 -0.000000 0.000000 -1.000000 0.000000 -0.000000 1.000000 -0.000000 0.000000 -1.000000 0.000000 -0.000000 1.000000 -0.000000 0.000000 -1.000000 0.000000 -0.000000 1.000000 -0.000000 0.000000 -1.000000 0.000000 -0.000000 1.000000 -0.000000 0.000000 -1.000000 0.000000 -0.000000 1.000000 -0.000000 0.000000 -1.000000 0.000000 -0.000000 1.000000 -0.000000 0.000000 -1.000000 0.000000 -0.000000 1.000000 -0.000000 0.000000 -1.000000 0.000000 -0.000000 1.000000 -0.000000 0.000000 -1.000000 0.000000 -0.000000 1.000000 -0.000000 0.000000 -1.000000 0.000000 -0.000000 1.000000 -0.000000 0.000000 -1.000000 0.000000 -0.000000 1.000000 -0.000000 0.000000 -1.000000 0.000000 -0.000000 1.000000 -0.000000 0.000000 -1.000000 0.000000 -0.000000 1.000000 -0.000000 0.000000 -1.000000 0.000000 -0.000000 1.000000 -0.000000 0.000000 -1.000000 0.000000 -0.000000 1.000000 -0.000000 0.000000 -1.000000 0.000000 -0.000000 1.000000 -0.000000 0.000000 -1.000000 0.000000 -0.000000 1.000000 -0.000000 0.000000 -1.000000 0.000000 -0.000000 1.000000 -0.000000 0.000000 -1.000000 0.000000 -0.000000 1.000000 -0.000000 0.000000 -1.000000 0.000000 -0.000000 1.000000 -0.000000 0.000000 -1.000000 0.000000 -0.000000 1.000000 -0.000000 0.000000 -1.000000 0.000000 -0.000000 1.000000 -0.000000 0.000000 -1.000000 0.000000 -0.000000 1.000000 -0.000000 0.000000 -1.000000 0.000000 -0.000000 1.000000 -0.000000 0.000000 -1.000000 0.000000 -0.000000 1.000000 -0.000000 0.000000 -1.000000 0.000000 -0.000000 1.000000 -0.000000 0.000000 -1.000000 0.000000 -0.000000 1.000000 -0.000000 0.000000 -1.000000 0.000000 -0.000000 1.000000 -0.000000 0.000000 -1.000000 0.000000 -0.000000 1.000000 -0.000000 0.000000 -1.000000 0.000000 -0.000000 1.000000 -0.000000 0.000000 -1.000000 0.000000 -0.000000 1.000000 -0.000000 0.000000 -1.000000 0.000000 -0.000000 1.000000 -0.000000 0.000000 -1.000000 0.000000 -0.000000 1.000000 -0.000000 0.000000 -1.000000 0.000000 -0.000000 1.000000 -0.000000 0.000000 -1.000000 0.000000 -0.000000 1.000000 -0.000000 0.000000 -1.000000 0.000000 -0.000000 1.000000 -0.000000 0.000000 -1.000000 0.000000 -0.000000 1.000000 -0.000000 0.000000 -1.000000 0.000000 -0.000000 1.000000 -0.000000 0.000000 -1.000000 0.000000 -0.000000 1.000000 -0.000000 0.000000 -1.000000 0.000000 -0.000000 1.000000 -0.000000 0.000000 -1.000000 0.000000 -0.000000 1.000000 -0.000000 0.000000 -1.000000 0.000000 -0.000000 1.000000 -0.000000 0.000000 -1.000000 0.000000 -0.000000 1.000000 -0.000000 0.000000 -1.000000 0.000000 -0.000000 1.000000 -0.000000 0.000000 -1.000000 0.000000 -0.000000 1.000000 -0.000000 0.000000 -1.000000 0.000000 -0.000000 1.000000 -0.000000 0.000000 -1.000000 0.000000 -0.000000 1.000000 -0.000000 0.000000 -1.000000 0.000000 -0.000000 1.000000 -0.000000 0.000000 -1.000000 0.000000 -0.000000 1.000000 -0.000000 0.000000 -1.000000 0.000000 -0.000000 1.000000 -0.000000 0.000000 -1.000000 0.000000 -0.000000 1.000000 -0.000000 0.000000 -1.000000 0.000000 -0.000000 1.000000 -0.000000 0.000000 -1.000000 0.000000 -0.000000 1.000000 -0.000000 0.000000 -1.000000 0.000000 -0.000000 1.000000 -0.000000 0.000000 -1.000000 0.000000 -0.000000 1.000000 -0.000000 0.000000 -1.000000 0.000000 -0.000000 1.000000 -0.000000 0.000000 -1.000000 0.000000 -0.000000 1.000000 -0.000000 0.000000 -1.000000 0.000000 -0.000000 1.000000 -0.000000 0.000000 -1.000000 0.000000 -0.000000 1.000000 -0.000000 0.000000 -1.000000 0.000000 -0.000000 1.000000 -0.000000 0.000000 -1.000000 0.000000 -0.000000 1.000000 -0.000000 0.000000 -1.000000 0.000000 -0.000000 1.000000 -0.000000 0.000000 -1.000000 0.000000 -0.000000 1.000000 -0.000000 0.000000 -1.000000 0.000000 -0.000000 1.000000 -0.000000 0.000000 -1.000000 0.000000 -0.000000 1.000000 -0.000000 0.000000 -1.000000 0.000000 -0.000000 1.000000 -0.000000 0.000000 -1.000000 0.000000 -0.000000 1.000000 -0.000000 0.000000 -1.000000 0.000000 -0.000000 1.000000 -0.000000 0.000000 -1.000000 0.000000 -0.000000 1.000000 -0.000000 0.000000 -1.000000 0.000000 -0.000000 1.000000 -0.000000 0.000000 -1.000000 0.000000 -0.000000 1.000000 -0.000000 0.000000 -1.000000 0.000000 -0.000000 1.000000 -0.000000 0.000000 -1.000000 0.000000 -0.000000 1.000000 -0.000000 0.000000 -1.000000 0.000000 -0.000000 1.000000 -0.000000 0.000000 -1.000000 0.000000 -0.000000 1.000000 -0.000000 0.000000 -1.000000 0.000000 -0.000000 1.000000 -0.000000 0.000000 -1.000000 0.000000 -0.000000 1.000000 -0.000000 0.000000 -1.000000 0.000000 -0.000000 1.000000 -0.000000 0.000000 -1.000000 0.000000 -0.000000 1.000000 -0.000000 0.000000 -1.000000 0.000000 -0.000000 1.000000 -0.000000 0.000000 -1.000000 0.000000 -0.000000 1.000000 -0.000000 0.000000 -1.000000 0.000000 -0.000000 1.000000 -0.000000 0.000000 -1.000000 0.000000 -0.000000 1.000000 -0.000000 0.000000 -1.000000 0.000000 -0.000000 1.000000 -0.000000 0.000000 -1.000000 0.000000 -0.000000 1.000000 -0.000000 0.000000 -1.000000 0.000000 -0.000000 1.000000 -0.000000 0.000000 -1.000000 0.000000 -0.000000 1.000000 -0.000000 0.000000 -1.000000 0.000000 -0.000000 1.000000 -0.000000 0.000000 -1.000000 0.000000 -0.000000 1.000000 -0.000000 0.000000 -1.000000 0.000000 -0.000000 1.000000 -0.000000 0.000000 -1.000000 0.000000 -0.000000 1.000000 -0.000000 0.000000 -1.000000 0.000000 -0.000000 1.000000 -0.000000 0.000000 -1.000000 0.000000 -0.000000 1.000000 -0.000000 0.000000 -1.000000 0.000000 -0.000000 1.000000 -0.000000 0.000000 -1.000000 0.000000 -0.000000 1.000000 -0.000000 0.000000 -1.000000 0.000000 -0.000000 1.000000 -0.000000 0.000000 -1.000000 0.000000 -0.000000 1.000000 -0.000000 0.000000 -1.000000 0.000000 -0.000000 1.000000 -0.000000 0.000000 -1.000000 0.000000 -0.000000 1.000000 -0.000000 0.000000 -1.000000 0.000000 -0.000000 1.000000 -0.000000 0.000000 -1.000000 0.000000 -0.000000 1.000000 -0.000000 0.000000 -1.000000 0.000000 -0.000000 1.000000 -0.000000 0.000000 -1.000000 0.000000 -0.000000 1.000000 -0.000000 0.000000 -1.000000 0.000000 -0.000000 1.000000 -0.000000 0.000000 -1.000000 0.000000 -0.000000 1.000000 -0.000000 0.000000 -1.000000 -0.000000 -0.000000 1.000000 0.000000 0.000000 -1.000000 0.000000 -0.000000 1.000000 -0.000000 0.000000 -1.000000 -0.000000 -0.000000 1.000000 0.000000 0.000000 -1.000000 0.000000 -0.000000 1.000000 -0.000000 0.000000 -1.000000 -0.000000 -0.000000 1.000000 0.000000 0.000000 -1.000000 0.000000 -0.000000 1.000000 -0.000000 0.000000 -1.000000 -0.000000 -0.000000 1.000000 0.000000 0.000000 -1.000000 0.000000 -0.000000 1.000000 -0.000000 0.000000 -1.000000 -0.000000 -0.000000 1.000000 0.000000 0.000000 -1.000000 0.000000 -0.000000 1.000000 -0.000000 0.000000 -1.000000 -0.000000 -0.000000 1.000000 0.000000 0.000000 -1.000000 0.000000 -0.000000 1.000000 -0.000000 0.000000 -1.000000 -0.000000 -0.000000 1.000000 0.000000 0.000000 -1.000000 0.000000 -0.000000 1.000000 -0.000000 0.000000 -1.000000 -0.000000 -0.000000 1.000000 0.000000 0.000000 -1.000000 0.000000 -0.000000 1.000000 -0.000000 0.000000 -1.000000 -0.000000 -0.000000 1.000000 0.000000 0.000000 -1.000000 0.000000 -0.000000 1.000000 -0.000000 0.000000 -1.000000 -0.000000 -0.000000 1.000000 0.000000 0.000000 -1.000000 0.000000 -0.000000 1.000000 -0.000000 0.000000 -1.000000 -0.000000 -0.000000 1.000000 0.000000 0.000000 -1.000000 0.000000 -0.000000 1.000000 -0.000000 0.000000 -1.000000 -0.000000 -0.000000 1.000000 0.000000 0.000000 -1.000000 0.000000 -0.000000 1.000000 -0.000000 0.000000 -1.000000 -0.000000 -0.000000 1.000000 0.000000 0.000000 -1.000000 0.000000 -0.000000 1.000000 -0.000000 0.000000 -1.000000 -0.000000 -0.000000 1.000000 0.000000 0.000000 -1.000000 0.000000 -0.000000 1.000000 -0.000000 0.000000 -1.000000 -0.000000 -0.000000 1.000000 0.000000 0.000000 -1.000000 0.000000 -0.000000 1.000000 -0.000000 0.000000 -1.000000 -0.000000 -0.000000 1.000000 0.000000 0.000000 -1.000000 0.000000 -0.000000 1.000000 -0.000000 0.000000 -1.000000 -0.000000 -0.000000 1.000000 0.000000 0.000000 -1.000000 0.000000 -0.000000 1.000000 -0.000000 0.000000 -1.000000 -0.000000 -0.000000 1.000000 0.000000 0.000000 -1.000000 0.000000 -0.000000 1.000000 -0.000000 0.000000 -1.000000 -0.000000 -0.000000 1.000000 0.000000 0.000000 -1.000000 0.000000 -0.000000 1.000000 -0.000000 0.000000 -1.000000 -0.000000 -0.000000 1.000000 0.000000 0.000000 -1.000000 0.000000 -0.000000 1.000000 -0.000000 0.000000 -1.000000 -0.000000 -0.000000 1.000000 0.000000 0.000000 -1.000000 0.000000 -0.000000 1.000000 -0.000000 0.000000 -1.000000 -0.000000 -0.000000 1.000000 0.000000 0.000000 -1.000000 0.000000 -0.000000 1.000000 -0.000000 0.000000 -1.000000 -0.000000 -0.000000 1.000000 0.000000 0.000000 -1.000000 0.000000 -0.000000 1.000000 -0.000000 0.000000 -1.000000 -0.000000 -0.000000 1.000000 0.000000 0.000000 -1.000000 0.000000 -0.000000 1.000000 -0.000000 0.000000 -1.000000 -0.000000 -0.000000 1.000000 0.000000 0.000000 -1.000000 0.000000 -0.000000 1.000000 -0.000000 0.000000 -1.000000 -0.000000 -0.000000 1.000000 0.000000 0.000000 -1.000000 0.000000 -0.000000 1.000000 -0.000000 0.000000 -1.000000 -0.000000 -0.000000 1.000000 0.000000 0.000000 -1.000000 0.000000 -0.000000 1.000000 -0.000000 0.000000 -1.000000 -0.000000 -0.000000 1.000000 0.000000 0.000000 -1.000000 0.000000 -0.000000 1.000000 -0.000000 0.000000 -1.000000 -0.000000 -0.000000 1.000000 0.000000 0.000000 -1.000000 0.000000 -0.000000 1.000000 -0.000000 0.000000 -1.000000 -0.000000 -0.000000 1.000000 0.000000 0.000000 -1.000000 0.000000 -0.000000 1.000000 -0.000000 0.000000 -1.000000 -0.000000 -0.000000 1.000000 0.000000 0.000000 -1.000000 0.000000 -0.000000 1.000000 -0.000000 0.000000 -1.000000 -0.000000 -0.000000 1.000000 0.000000 0.000000 -1.000000 0.000000 -0.000000 1.000000 -0.000000 0.000000 -1.000000 -0.000000 -0.000000 1.000000 0.000000 0.000000 -1.000000 0.000000 -0.000000 1.000000 -0.000000 0.000000 -1.000000 -0.000000 -0.000000 1.000000 0.000000 0.000000 -1.000000 0.000000 -0.000000 1.000000 -0.000000 0.000000 -1.000000 -0.000000 -0.000000 1.000000 0.000000 0.000000 -1.000000 0.000000 -0.000000 1.000000 -0.000000 0.000000 -1.000000 -0.000000 -0.000000 1.000000 0.000000 0.000000 -1.000000 0.000000 -0.000000 1.000000 -0.000000 0.000000 -1.000000 -0.000000 -0.000000 1.000000 0.000000 0.000000 -1.000000 0.000000 -0.000000 1.000000 -0.000000 0.000000 -1.000000 -0.000000 -0.000000 1.000000 0.000000 0.000000 -1.000000 0.000000 -0.000000 1.000000 -0.000000 0.000000 -1.000000 -0.000000 -0.000000 1.000000 0.000000 0.000000 -1.000000 0.000000 -0.000000 1.000000 -0.000000 0.000000 -1.000000 -0.000000 -0.000000 1.000000 0.000000 0.000000 -1.000000 0.000000 -0.000000 1.000000 -0.000000 0.000000 -1.000000 -0.000000 -0.000000 1.000000 0.000000 0.000000 -1.000000 0.000000 -0.000000 1.000000 -0.000000 0.000000 -1.000000 -0.000000 -0.000000 1.000000 0.000000 0.000000 -1.000000 0.000000 -0.000000 1.000000 -0.000000 0.000000 -1.000000 -0.000000 -0.000000 1.000000 0.000000 0.000000 -1.000000 0.000000 -0.000000 1.000000 -0.000000 0.000000 -1.000000 -0.000000 -0.000000 1.000000 0.000000 0.000000 -1.000000 0.000000 -0.000000 1.000000 -0.000000 0.000000 -1.000000 -0.000000 -0.000000 1.000000 0.000000 0.000000 -1.000000 0.000000 -0.000000 1.000000 -0.000000 0.000000 -1.000000 -0.000000 -0.000000 1.000000 0.000000 0.000000 -1.000000 0.000000 -0.000000 1.000000 -0.000000 0.000000 -1.000000 -0.000000 -0.000000 1.000000 0.000000 0.000000 -1.000000 0.000000 -0.000000 1.000000 -0.000000 0.000000 -1.000000 -0.000000 -0.000000 1.000000 0.000000 0.000000 -1.000000 0.000000 -0.000000 1.000000 -0.000000 0.000000 -1.000000 -0.000000 -0.000000 1.000000 0.000000 0.000000 -1.000000 0.000000 -0.000000 1.000000 -0.000000 0.000000 -1.000000 -0.000000 -0.000000 1.000000 0.000000 0.000000 -1.000000 0.000000 -0.000000 1.000000 -0.000000 0.000000 -1.000000 -0.000000 -0.000000 1.000000 0.000000 0.000000 -1.000000 0.000000 -0.000000 1.000000 -0.000000 0.000000 -1.000000 -0.000000 -0.000000 1.000000 0.000000 0.000000 -1.000000 0.000000 -0.000000 1.000000 -0.000000 0.000000 -1.000000 -0.000000 -0.000000 1.000000 0.000000 0.000000 -1.000000 0.000000 -0.000000 1.000000 -0.000000 0.000000 -1.000000 -0.000000 -0.000000 1.000000 0.000000 0.000000 -1.000000 0.000000 -0.000000 1.000000 -0.000000 0.000000 -1.000000 -0.000000 -0.000000 1.000000 0.000000 0.000000 -1.000000 0.000000 -0.000000 1.000000 -0.000000 0.000000 -1.000000 -0.000000 -0.000000 1.000000 0.000000 0.000000 -1.000000 0.000000 -0.000000 1.000000 -0.000000 0.000000 -1.000000 -0.000000 -0.000000 1.000000 0.000000 0.000000 -1.000000 0.000000 -0.000000 1.000000 -0.000000 0.000000 -1.000000 -0.000000 -0.000000 1.000000 0.000000 0.000000 -1.000000 0.000000 -0.000000 1.000000 -0.000000 0.000000 -1.000000 -0.000000 -0.000000 1.000000 0.000000 0.000000 -1.000000 0.000000 -0.000000 1.000000 -0.000000 0.000000 -1.000000 -0.000000 -0.000000 1.000000 0.000000 0.000000 -1.000000 0.000000 -0.000000 1.000000 -0.000000 0.000000 -1.000000 -0.000000 -0.000000 1.000000 0.000000 0.000000 -1.000000 0.000000 -0.000000 1.000000 -0.000000 0.000000 -1.000000 -0.000000 -0.000000 1.000000 0.000000 0.000000 -1.000000 0.000000 -0.000000 1.000000 -0.000000 0.000000 -1.000000 -0.000000 -0.000000 1.000000 0.000000 0.000000 -1.000000 0.000000 -0.000000 1.000000 -0.000000 0.000000 -1.000000 -0.000000 -0.000000 1.000000 0.000000 0.000000 -1.000000 0.000000 -0.000000 1.000000 -0.000000 0.000000 -1.000000 -0.000000 -0.000000 1.000000 0.000000 0.000000 -1.000000 0.000000 -0.000000 1.000000 -0.000000 0.000000 -1.000000 -0.000000 -0.000000 1.000000 0.000000 0.000000 -1.000000 0.000000 -0.000000 1.000000 -0.000000 0.000000 -1.000000 -0.000000 -0.000000 1.000000 0.000000 0.000000 -1.000000 0.000000 -0.000000 1.000000 -0.000000 0.000000 -1.000000 -0.000000 -0.000000 1.000000 0.000000 0.000000 -1.000000 0.000000 -0.000000 1.000000 -0.000000 0.000000 -1.000000 -0.000000 -0.000000 1.000000 0.000000 0.000000 -1.000000 0.000000 -0.000000 1.000000 -0.000000 0.000000 -1.000000 -0.000000 -0.000000 1.000000 0.000000 0.000000 -1.000000 0.000000 -0.000000 1.000000 -0.000000 0.000000 -1.000000 -0.000000 -0.000000 1.000000 0.000000 0.000000 -1.000000 0.000000 -0.000000 1.000000 -0.000000 0.000000 -1.000000 -0.000000 -0.000000 1.000000 0.000000 0.000000 -1.000000 0.000000 -0.000000 1.000000 -0.000000 0.000000 -1.000000 -0.000000 -0.000000 1.000000 0.000000 0.000000 -1.000000 0.000000 -0.000000 1.000000 -0.000000 0.000000 -1.000000 -0.000000 -0.000000 1.000000 0.000000 0.000000 -1.000000 0.000000 -0.000000 1.000000 -0.000000 0.000000 -1.000000 -0.000000 -0.000000 1.000000 0.000000 0.000000 -1.000000 0.000000 -0.000000 1.000000 -0.000000 0.000000 -1.000000 -0.000000 -0.000000 1.000000 0.000000 0.000000 -1.000000 0.000000 -0.000000 1.000000 -0.000000 0.000000 -1.000000 -0.000000 -0.000000 1.000000 0.000000 0.000000 -1.000000 0.000000 -0.000000 1.000000 -0.000000 0.000000 -1.000000 -0.000000 -0.000000 1.000000 0.000000 0.000000 -1.000000 0.000000 -0.000000 1.000000 -0.000000 0.000000 -1.000000 -0.000000 -0.000000 1.000000 0.000000 0.000000 -1.000000 0.000000 -0.000000 1.000000 -0.000000 0.000000 -1.000000 0.000000 -0.000000 1.000000 -0.000000 0.000000 -1.000000 0.000000 -0.000000 1.000000 -0.000000 0.000000 -1.000000 0.000000 -0.000000 1.000000 -0.000000 0.000000 -1.000000 0.000000 -0.000000 1.000000 -0.000000 0.000000 -1.000000 0.000000 -0.000000 1.000000 -0.000000 0.000000 -1.000000 0.000000 -0.000000 1.000000 -0.000000 0.000000 -1.000000 0.000000 -0.000000 1.000000 -0.000000 0.000000 -1.000000 0.000000 -0.000000 1.000000 -0.000000</float_array>
          <technique_common>
            <accessor source="#NA" count="648" stride="3">
              <param name="X" type="float" />
              <param name="Y" type="float" />
              <param name="Z" type="float" />
            </accessor>
          </technique_common>
        </source>
        <vertices id="V"><input semantic="POSITION" source="#P"/></vertices>
        <triangles count="648">
          <input semantic="VERTEX" source="#V" offset="0" />
          <input semantic="NORMAL" source="#N" offset="1" />
          <p>0 0 1 0 2 0 0 1 2 1 1 1 0 2 2 2 3 2 0 3 3 3 2 3 4 4 5 4 6 4 4 5 6 5 5 5 4 6 6 6 7 6 4 7 7 7 6 7 8 8 9 8 10 8 8 9 10 9 9 9 8 10 10 10 11 10 8 11 11 11 10 11 12 12 13 12 14 12 12 13 14 13 13 13 12 14 14 14 15 14 12 15 15 15 14 15 16 16 17 16 18 16 16 17 18 17 17 17 16 18 18 18 19 18 16 19 19 19 18 19 20 20 21 20 22 20 20 21 22 21 21 21 20 22 22 22 23 22 20 23 23 23 22 23 24 24 25 24 26 24 24 25 26 25 25 25 24 26 26 26 27 26 24 27 27 27 26 27 28 28 29 28 30 28 28 29 30 29 29 29 28 30 30 30 31 30 28 31 31 31 30 31 32 32 33 32 34 32 32 33 34 33 33 33 32 34 34 34 35 34 32 35 35 35 34 35 36 36 37 36 38 36 36 37 38 37 37 37 36 38 38 38 39 38 36 39 39 39 38 39 40 40 41 40 42 40 40 41 42 41 41 41 40 42 42 42 43 42 40 43 43 43 42 43 44 44 45 44 46 44 44 45 46 45 45 45 44 46 46 46 47 46 44 47 47 47 46 47 48 48 49 48 50 48 48 49 50 49 49 49 48 50 50 50 51 50 48 51 51 51 50 51 52 52 53 52 54 52 52 53 54 53 53 53 52 54 54 54 55 54 52 55 55 55 54 55 56 56 57 56 58 56 56 57 58 57 57 57 56 58 58 58 59 58 56 59 59 59 58 59 60 60 61 60 62 60 60 61 62 61 61 61 60 62 62 62 63 62 60 63 63 63 62 63 64 64 65 64 66 64 64 65 66 65 65 65 64 66 66 66 67 66 64 67 67 67 66 67 68 68 69 68 70 68 68 69 70 69 69 69 68 70 70 70 71 70 68 71 71 71 70 71 72 72 73 72 74 72 72 73 74 73 73 73 72 74 74 74 75 74 72 75 75 75 74 75 76 76 77 76 78 76 76 77 78 77 77 77 76 78 78 78 79 78 76 79 79 79 78 79 80 80 81 80 82 80 80 81 82 81 81 81 80 82 82 82 83 82 80 83 83 83 82 83 84 84 85 84 86 84 84 85 86 85 85 85 84 86 86 86 87 86 84 87 87 87 86 87 88 88 89 88 90 88 88 89 90 89 89 89 88 90 90 90 91 90 88 91 91 91 90 91 92 92 93 92 94 92 92 93 94 93 93 93 92 94 94 94 95 94 92 95 95 95 94 95 96 96 97 96 98 96 96 97 98 97 97 97 96 98 98 98 99 98 96 99 99 99 98 99 100 100 101 100 102 100 100 101 102 101 101 101 100 102 102 102 103 102 100 103 103 103 102 103 104 104 105 104 106 104 104 105 106 105 105 105 104 106 106 106 107 106 104 107 107 107 106 107 108 108 109 108 110 108 108 109 110 109 109 109 108 110 110 110 111 110 108 111 111 111 110 111 112 112 113 112 114 112 112 113 114 113 113 113 112 114 114 114 115 114 112 115 115 115 114 115 116 116 117 116 118 116 116 117 118 117 117 117 116 118 118 118 119 118 116 119 119 119 118 119 120 120 121 120 122 120 120 121 122 121 121 121 120 122 122 122 123 122 120 123 123 123 122 123 124 124 125 124 126 124 124 125 126 125 125 125 124 126 126 126 127 126 124 127 127 127 126 127 128 128 129 128 130 128 128 129 130 129 129 129 128 130 130 130 131 130 128 131 131 131 130 131 132 132 133 132 134 132 132 133 134 133 133 133 132 134 134 134 135 134 132 135 135 135 134 135 136 136 137 136 138 136 136 137 138 137 137 137 136 138 138 138 139 138 136 139 139 139 138 139 140 140 141 140 142 140 140 141 142 141 141 141 140 142 142 142 143 142 140 143 143 143 142 143 144 144 145 144 146 144 144 145 146 145 145 145 144 146 146 146 147 146 144 147 147 147 146 147 148 148 149 148 150 148 148 149 150 149 149 149 148 150 150 150 151 150 148 151 151 151 150 151 152 152 153 152 154 152 152 153 154 153 153 153 152 154 154 154 155 154 152 155 155 155 154 155 156 156 157 156 158 156 156 157 158 157 157 157 156 158 158 158 159 158 156 159 159 159 158 159 160 160 161 160 162 160 160 161 162 161 161 161 160 162 162 162 163 162 160 163 163 163 162 163 164 164 165 164 166 164 164 165 166 165 165 165 164 166 166 166 167 166 164 167 167 167 166 167 168 168 169 168 170 168 168 169 170 169 169 169 168 170 170 170 171 170 168 171 171 171 170 171 172 172 173 172 174 172 172 173 174 173 173 173 172 174 174 174 175 174 172 175 175 175 174 175 176 176 177 176 178 176 176 177 178 177 177 177 176 178 178 178 179 178 176 179 179 179 178 179 180 180 181 180 182 180 180 181 182 181 181 181 180 182 182 182 183 182 180 183 183 183 182 183 184 184 185 184 186 184 184 185 186 185 185 185 184 186 186 186 187 186 184 187 187 187 186 187 188 188 189 188 190 188 188 189 190 189 189 189 188 190 190 190 191 190 188 191 191 191 190 191 192 192 193 192 194 192 192 193 194 193 193 193 192 194 194 194 195 194 192 195 195 195 194 195 196 196 197 196 198 196 196 197 198 197 197 197 196 198 198 198 199 198 196 199 199 199 198 199 200 200 201 200 202 200 200 201 202 201 201 201 200 202 202 202 203 202 200 203 203 203 202 203 204 204 205 204 206 204 204 205 206 205 205 205 204 206 206 206 207 206 204 207 207 207 206 207 208 208 209 208 210 208 208 209 210 209 209 209 208 210 210 210 211 210 208 211 211 211 210 211 212 212 213 212 214 212 212 213 214 213 213 213 212 214 214 214 215 214 212 215 215 215 214 215 216 216 217 216 218 216 216 217 218 217 217 217 216 218 218 218 219 218 216 219 219 219 218 219 220 220 221 220 222 220 220 221 222 221 221 221 220 222 222 222 223 222 220 223 223 223 222 223 224 224 225 224 226 224 224 225 226 225 225 225 224 226 226 226 227 226 224 227 227 227 226 227 228 228 229 228 230 228 228 229 230 229 229 229 228 230 230 230 231 230 228 231 231 231 230 231 232 232 233 232 234 232 232 233 234 233 233 233 232 234 234 234 235 234 232 235 235 235 234 235 236 236 237 236 238 236 236 237 238 237 237 237 236 238 238 238 239 238 236 239 239 239 238 239 240 240 241 240 242 240 240 241 242 241 241 241 240 242 242 242 243 242 240 243 243 243 242 243 244 244 245 244 246 244 244 245 246 245 245 245 244 246 246 246 247 246 244 247 247 247 246 247 248 248 249 248 250 248 248 249 250 249 249 249 248 250 250 250 251 250 248 251 251 251 250 251 252 252 253 252 254 252 252 253 254 253 253 253 252 254 254 254 255 254 252 255 255 255 254 255 256 256 257 256 258 256 256 257 258 257 257 257 256 258 258 258 259 258 256 259 259 259 258 259 260 260 261 260 262 260 260 261 262 261 261 261 260 262 262 262 263 262 260 263 263 263 262 263 264 264 265 264 266 264 264 265 266 265 265 265 264 266 266 266 267 266 264 267 267 267 266 267 268 268 269 268 270 268 268 269 270 269 269 269 268 270 270 270 271 270 268 271 271 271 270 271 272 272 273 272 274 272 272 273 274 273 273 273 272 274 274 274 275 274 272 275 275 275 274 275 276 276 277 276 278 276 276 277 278 277 277 277 276 278 278 278 279 278 276 279 279 279 278 279 280 280 281 280 282 280 280 281 282 281 281 281 280 282 282 282 283 282 280 283 283 283 282 283 284 284 285 284 286 284 284 285 286 285 285 285 284 286 286 286 287 286 284 287 287 287 286 287 288 288 289 288 290 288 288 289 290 289 289 289 288 290 290 290 291 290 288 291 291 291 290 291 292 292 293 292 294 292 292 293 294 293 293 293 292 294 294 294 295 294 292 295 295 295 294 295 296 296 297 296 298 296 296 297 298 297 297 297 296 298 298 298 299 298 296 299 299 299 298 299 300 300 301 300 302 300 300 301 302 301 301 301 300 302 302 302 303 302 300 303 303 303 302 303 304 304 305 304 306 304 304 305 306 305 305 305 304 306 306 306 307 306 304 307 307 307 306 307 308 308 309 308 310 308 308 309 310 309 309 309 308 310 310 310 311 310 308 311 311 311 310 311 312 312 313 312 314 312 312 313 314 313 313 313 312 314 314 314 315 314 312 315 315 315 314 315 316 316 317 316 318 316 316 317 318 317 317 317 316 318 318 318 319 318 316 319 319 319 318 319 320 320 321 320 322 320 320 321 322 321 321 321 320 322 322 322 323 322 320 323 323 323 322 323 324 324 325 324 326 324 324 325 326 325 325 325 324 326 326 326 327 326 324 327 327 327 326 327 328 328 329 328 330 328 328 329 330 329 329 329 328 330 330 330 331 330 328 331 331 331 330 331 332 332 333 332 334 332 332 333 334 333 333 333 332 334 334 334 335 334 332 335 335 335 334 335 336 336 337 336 338 336 336 337 338 337 337 337 336 338 338 338 339 338 336 339 339 339 338 339 340 340 341 340 342 340 340 341 342 341 341 341 340 342 342 342 343 342 340 343 343 343 342 343 344 344 345 344 346 344 344 345 346 345 345 345 344 346 346 346 347 346 344 347 347 347 346 347 348 348 349 348 350 348 348 349 350 349 349 349 348 350 350 350 351 350 348 351 351 351 350 351 352 352 353 352 354 352 352 353 354 353 353 353 352 354 354 354 355 354 352 355 355 355 354 355 356 356 357 356 358 356 356 357 358 357 357 357 356 358 358 358 359 358 356 359 359 359 358 359 360 360 361 360 362 360 360 361 362 361 361 361 360 362 362 362 363 362 360 363 363 363 362 363 364 364 365 364 366 364 364 365 366 365 365 365 364 366 366 366 367 366 364 367 367 367 366 367 368 368 369 368 370 368 368 369 370 369 369 369 368 370 370 370 371 370 368 371 371 371 370 371 372 372 373 372 374 372 372 373 374 373 373 373 372 374 374 374 375 374 372 375 375 375 374 375 376 376 377 376 378 376 376 377 378 377 377 377 376 378 378 378 379 378 376 379 379 379 378 379 380 380 381 380 382 380 380 381 382 381 381 381 380 382 382 382 383 382 380 383 383 383 382 383 384 384 385 384 386 384 384 385 386 385 385 385 384 386 386 386 387 386 384 387 387 387 386 387 388 388 389 388 390 388 388 389 390 389 389 389 388 390 390 390 391 390 388 391 391 391 390 391 392 392 393 392 394 392 392 393 394 393 393 393 392 394 394 394 395 394 392 395 395 395 394 395 396 396 397 396 398 396 396 397 398 397 397 397 396 398 398 398 399 398 396 399 399 399 398 399 400 400 401 400 402 400 400 401 402 401 401 401 400 402 402 402 403 402 400 403 403 403 402 403 404 404 405 404 406 404 404 405 406 405 405 405 404 406 406 406 407 406 404 407 407 407 406 407 408 408 409 408 410 408 408 409 410 409 409 409 408 410 410 410 411 410 408 411 411 411 410 411 412 412 413 412 414 412 412 413 414 413 413 413 412 414 414 414 415 414 412 415 415 415 414 415 416 416 417 416 418 416 416 417 418 417 417 417 416 418 418 418 419 418 416 419 419 419 418 419 420 420 421 420 422 420 420 421 422 421 421 421 420 422 422 422 423 422 420 423 423 423 422 423 424 424 425 424 426 424 424 425 426 425 425 425 424 426 426 426 427 426 424 427 427 427 426 427 428 428 429 428 430 428 428 429 430 429 429 429 428 430 430 430 431 430 428 431 431 431 430 431 432 432 433 432 434 432 432 433 434 433 433 433 432 434 434 434 435 434 432 435 435 435 434 435 436 436 437 436 438 436 436 437 438 437 437 437 436 438 438 438 439 438 436 439 439 439 438 439 440 440 441 440 442 440 440 441 442 441 441 441 440 442 442 442 443 442 440 443 443 443 442 443 444 444 445 444 446 444 444 445 446 445 445 445 444 446 446 446 447 446 444 447 447 447 446 447 448 448 449 448 450 448 448 449 450 449 449 449 448 450 450 450 451 450 448 451 451 451 450 451 452 452 453 452 454 452 452 453 454 453 453 453 452 454 454 454 455 454 452 455 455 455 454 455 456 456 457 456 458 456 456 457 458 457 457 457 456 458 458 458 459 458 456 459 459 459 458 459 460 460 461 460 462 460 460 461 462 461 461 461 460 462 462 462 463 462 460 463 463 463 462 463 464 464 465 464 466 464 464 465 466 465 465 465 464 466 466 466 467 466 464 467 467 467 466 467 468 468 469 468 470 468 468 469 470 469 469 469 468 470 470 470 471 470 468 471 471 471 470 471 472 472 473 472 474 472 472 473 474 473 473 473 472 474 474 474 475 474 472 475 475 475 474 475 476 476 477 476 478 476 476 477 478 477 477 477 476 478 478 478 479 478 476 479 479 479 478 479 480 480 481 480 482 480 480 481 482 481 481 481 480 482 482 482 483 482 480 483 483 483 482 483 484 484 485 484 486 484 484 485 486 485 485 485 484 486 486 486 487 486 484 487 487 487 486 487 488 488 489 488 490 488 488 489 490 489 489 489 488 490 490 490 491 490 488 491 491 491 490 491 492 492 493 492 494 492 492 493 494 493 493 493 492 494 494 494 495 494 492 495 495 495 494 495 496 496 497 496 498 496 496 497 498 497 497 497 496 498 498 498 499 498 496 499 499 499 498 499 500 500 501 500 502 500 500 501 502 501 501 501 500 502 502 502 503 502 500 503 503 503 502 503 504 504 505 504 506 504 504 505 506 505 505 505 504 506 506 506 507 506 504 507 507 507 506 507 508 508 509 508 510 508 508 509 510 509 509 509 508 510 510 510 511 510 508 511 511 511 510 511 512 512 513 512 514 512 512 513 514 513 513 513 512 514 514 514 515 514 512 515 515 515 514 515 516 516 517 516 518 516 516 517 518 517 517 517 516 518 518 518 519 518 516 519 519 519 518 519 520 520 521 520 522 520 520 521 522 521 521 521 520 522 522 522 523 522 520 523 523 523 522 523 524 524 525 524 526 524 524 525 526 525 525 525 524 526 526 526 527 526 524 527 527 527 526 527 528 528 529 528 530 528 528 529 530 529 529 529 528 530 530 530 531 530 528 531 531 531 530 531 532 532 533 532 534 532 532 533 534 533 533 533 532 534 534 534 535 534 532 535 535 535 534 535 536 536 537 536 538 536 536 537 538 537 537 537 536 538 538 538 539 538 536 539 539 539 538 539 540 540 541 540 542 540 540 541 542 541 541 541 540 542 542 542 543 542 540 543 543 543 542 543 544 544 545 544 546 544 544 545 546 545 545 545 544 546 546 546 547 546 544 547 547 547 546 547 548 548 549 548 550 548 548 549 550 549 549 549 548 550 550 550 551 550 548 551 551 551 550 551 552 552 553 552 554 552 552 553 554 553 553 553 552 554 554 554 555 554 552 555 555 555 554 555 556 556 557 556 558 556 556 557 558 557 557 557 556 558 558 558 559 558 556 559 559 559 558 559 560 560 561 560 562 560 560 561 562 561 561 561 560 562 562 562 563 562 560 563 563 563 562 563 564 564 565 564 566 564 564 565 566 565 565 565 564 566 566 566 567 566 564 567 567 567 566 567 568 568 569 568 570 568 568 569 570 569 569 569 568 570 570 570 571 570 568 571 571 571 570 571 572 572 573 572 574 572 572 573 574 573 573 573 572 574 574 574 575 574 572 575 575 575 574 575 576 576 577 576 578 576 576 577 578 577 577 577 576 578 578 578 579 578 576 579 579 579 578 579 580 580 581 580 582 580 580 581 582 581 581 581 580 582 582 582 583 582 580 583 583 583 582 583 584 584 585 584 586 584 584 585 586 585 585 585 584 586 586 586 587 586 584 587 587 587 586 587 588 588 589 588 590 588 588 589 590 589 589 589 588 590 590 590 591 590 588 591 591 591 590 591 592 592 593 592 594 592 592 593 594 593 593 593 592 594 594 594 595 594 592 595 595 595 594 595 596 596 597 596 598 596 596 597 598 597 597 597 596 598 598 598 599 598 596 599 599 599 598 599 600 600 601 600 602 600 600 601 602 601 601 601 600 602 602 602 603 602 600 603 603 603 602 603 604 604 605 604 606 604 604 605 606 605 605 605 604 606 606 606 607 606 604 607 607 607 606 607 608 608 609 608 610 608 608 609 610 609 609 609 608 610 610 610 611 610 608 611 611 611 610 611 612 612 613 612 614 612 612 613 614 613 613 613 612 614 614 614 615 614 612 615 615 615 614 615 616 616 617 616 618 616 616 617 618 617 617 617 616 618 618 618 619 618 616 619 619 619 618 619 620 620 621 620 622 620 620 621 622 621 621 621 620 622 622 622 623 622 620 623 623 623 622 623 624 624 625 624 626 624 624 625 626 625 625 625 624 626 626 626 627 626 624 627 627 627 626 627 628 628 629 628 630 628 628 629 630 629 629 629 628 630 630 630 631 630 628 631 631 631 630 631 632 632 633 632 634 632 632 633 634 633 633 633 632 634 634 634 635 634 632 635 635 635 634 635 636 636 637 636 638 636 636 637 638 637 637 637 636 638 638 638 639 638 636 639 639 639 638 639 640 640 641 640 642 640 640 641 642 641 641 641 640 642 642 642 643 642 640 643 643 643 642 643 644 644 645 644 646 644 644 645 646 645 645 645 644 646 646 646 647 646 644 647 647 647 646 647</p>
        </triangles>
      </mesh>
    </geometry>
  </library_geometries>
  <library_visual_scenes>
    <visual_scene id="S">
      <node><instance_geometry url="#gate_leaf"/></node>
    </visual_scene>
  </library_visual_scenes>
  <scene><instance_visual_scene url="#S"/></scene>
</COLLADA>
