<?xml version="1.0" encoding="utf-8"?>
<COLLADA xmlns="http://www.collada.org/2005/11/COLLADASchema" version="1.4.1">
  <asset><up_axis>Z_UP</up_axis></asset>
  <library_geometries>
    <geometry id="net_mesh">
      <mesh>
        <source id="P">
          <float_array id="PA" count="576">-5.65000 0.00000 0.00300 -5.65000 0.00000 -0.00300 5.65000 0.00000 -0.00300 5.65000 0.00000 0.00300 -5.65000 0.00000 0.10300 -5.65000 0.00000 0.09700 5.65000 0.00000 0.09700 5.65000 0.00000 0.10300 -5.65000 0.00000 0.20300 -5.65000 0.00000 0.19700 5.65000 0.00000 0.19700 5.65000 0.00000 0.20300 -5.65000 0.00000 0.30300 -5.65000 0.00000 0.29700 5.65000 0.00000 0.29700 5.65000 0.00000 0.30300 -5.65000 0.00000 0.40300 -5.65000 0.00000 0.39700 5.65000 0.00000 0.39700 5.65000 0.00000 0.40300 -5.65000 0.00000 0.50300 -5.65000 0.00000 0.49700 5.65000 0.00000 0.49700 5.65000 0.00000 0.50300 -5.65000 0.00000 0.60300 -5.65000 0.00000 0.59700 5.65000 0.00000 0.59700 5.65000 0.00000 0.60300 -5.65000 0.00000 0.70300 -5.65000 0.00000 0.69700 5.65000 0.00000 0.69700 5.65000 0.00000 0.70300 -5.65000 0.00000 0.80300 -5.65000 0.00000 0.79700 5.65000 0.00000 0.79700 5.65000 0.00000 0.80300 -5.65000 0.00000 0.90750 -5.65000 0.00000 0.89250 5.65000 0.00000 0.89250 5.65000 0.00000 0.90750 -5.65300 0.00000 0.00000 -5.64700 0.00000 0.00000 -5.64700 0.00000 0.91400 -5.65300 0.00000 0.91400 -5.35300 0.00000 0.00000 -5.34700 0.00000 0.00000 -5.34700 0.00000 0.91400 -5.35300 0.00000 0.91400 -5.05300 0.00000 0.00000 -5.04700 0.00000 0.00000 -5.04700 0.00000 0.91400 -5.05300 0.00000 0.91400 -4.75300 0.00000 0.00000 -4.74700 0.00000 0.00000 -4.74700 0.00000 0.91400 -4.75300 0.00000 0.91400 -4.45300 0.00000 0.00000 -4.44700 0.00000 0.00000 -4.44700 0.00000 0.91400 -4.45300 0.00000 0.91400 -4.15300 0.00000 0.00000 -4.14700 0.00000 0.00000 -4.14700 0.00000 0.91400 -4.15300 0.00000 0.91400 -3.85300 0.00000 0.00000 -3.84700 0.00000 0.00000 -3.84700 0.00000 0.91400 -3.85300 0.00000 0.91400 -3.55300 0.00000 0.00000 -3.54700 0.00000 0.00000 -3.54700 0.00000 0.91400 -3.55300 0.00000 0.91400 -3.25300 0.00000 0.00000 -3.24700 0.00000 0.00000 -3.24700 0.00000 0.91400 -3.25300 0.00000 0.91400 -2.95300 0.00000 0.00000 -2.94700 0.00000 0.00000 -2.94700 0.00000 0.91400 -2.95300 0.00000 0.91400 -2.65300 0.00000 0.00000 -2.64700 0.00000 0.00000 -2.64700 0.00000 0.91400 -2.65300 0.00000 0.91400 -2.35300 0.00000 0.00000 -2.34700 0.00000 0.00000 -2.34700 0.00000 0.91400 -2.35300 0.00000 0.91400 -2.05300 0.00000 0.00000 -2.04700 0.00000 0.00000 -2.04700 0.00000 0.91400 -2.05300 0.00000 0.91400 -1.75300 0.00000 0.00000 -1.74700 0.00000 0.00000 -1.74700 0.00000 0.91400 -1.75300 0.00000 0.91400 -1.45300 0.00000 0.00000 -1.44700 0.00000 0.00000 -1.44700 0.00000 0.91400 -1.45300 0.00000 0.91400 -1.15300 0.00000 0.00000 -1.14700 0.00000 0.00000 -1.14700 0.00000 0.91400 -1.15300 0.00000 0.91400 -0.85300 0.00000 0.00000 -0.84700 0.00000 0.00000 -0.84700 0.00000 0.91400 -0.85300 0.00000 0.91400 -0.55300 0.00000 0.00000 -0.54700 0.00000 0.00000 -0.54700 0.00000 0.91400 -0.55300 0.00000 0.91400 -0.25300 0.00000 0.00000 -0.24700 0.00000 0.00000 -0.24700 0.00000 0.91400 -0.25300 0.00000 0.91400 0.04700 0.00000 0.00000 0.05300 0.00000 0.00000 0.05300 0.00000 0.91400 0.04700 0.00000 0.91400 0.34700 0.00000 0.00000 0.35300 0.00000 0.00000 0.35300 0.00000 0.91400 0.34700 0.00000 0.91400 0.64700 0.00000 0.00000 0.65300 0.00000 0.00000 0.65300 0.00000 0.91400 0.64700 0.00000 0.91400 0.94700 0.00000 0.00000 0.95300 0.00000 0.00000 0.95300 0.00000 0.91400 0.94700 0.00000 0.91400 1.24700 0.00000 0.00000 1.25300 0.00000 0.00000 1.25300 0.00000 0.91400 1.24700 0.00000 0.91400 1.54700 0.00000 0.00000 1.55300 0.00000 0.00000 1.55300 0.00000 0.91400 1.54700 0.00000 0.91400 1.84700 0.00000 0.00000 1.85300 0.00000 0.00000 1.85300 0.00000 0.91400 1.84700 0.00000 0.91400 2.14700 0.00000 0.00000 2.15300 0.00000 0.00000 2.15300 0.00000 0.91400 2.14700 0.00000 0.91400 2.44700 0.00000 0.00000 2.45300 0.00000 0.00000 2.45300 0.00000 0.91400 2.44700 0.00000 0.91400 2.74700 0.00000 0.00000 2.75300 0.00000 0.00000 2.75300 0.00000 0.91400 2.74700 0.00000 0.91400 3.04700 0.00000 0.00000 3.05300 0.00000 0.00000 3.05300 0.00000 0.91400 3.04700 0.00000 0.91400 3.34700 0.00000 0.00000 3.35300 0.00000 0.00000 3.35300 0.00000 0.91400 3.34700 0.00000 0.91400 3.64700 0.00000 0.00000 3.65300 0.00000 0.00000 3.65300 0.00000 0.91400 3.64700 0.00000 0.91400 3.94700 0.00000 0.00000 3.95300 0.00000 0.00000 3.95300 0.00000 0.91400 3.94700 0.00000 0.91400 4.24700 0.00000 0.00000 4.25300 0.00000 0.00000 4.25300 0.00000 0.91400 4.24700 0.00000 0.91400 4.54700 0.00000 0.00000 4.55300 0.00000 0.00000 4.55300 0.00000 0.91400 4.54700 0.00000 0.91400 4.84700 0.00000 0.00000 4.85300 0.00000 0.00000 4.85300 0.00000 0.91400 4.84700 0.00000 0.91400 5.14700 0.00000 0.00000 5.15300 0.00000 0.00000 5.15300 0.00000 0.91400 5.14700 0.00000 0.91400 5.44700 0.00000 0.00000 5.45300 0.00000 0.00000 5.45300 0.00000 0.91400 5.44700 0.00000 0.91400</float_array>
          <technique_common>
            <accessor source="#PA" count="192" stride="3">
              <param name="X" type="float"/>
              <param name="Y" type="float"/>
              <param name="Z" type="float"/>
            </accessor>
          </technique_common>
        </source>
        <vertices id="V"><input semantic="POSITION" source="#P"/></vertices>
        <triangles count="96">
          <input semantic="VERTEX" source="#V" offset="0"/>
          <p>0 1 2 0 2 3 4 5 6 4 6 7 8 9 10 8 10 11 12 13 14 12 14 15 16 17 18 16 18 19 20 21 22 20 22 23 24 25 26 24 26 27 28 29 30 28 30 31 32 33 34 32 34 35 36 37 38 36 38 39 40 41 42 40 42 43 44 45 46 44 46 47 48 49 50 48 50 51 52 53 54 52 54 55 56 57 58 56 58 59 60 61 62 60 62 63 64 65 66 64 66 67 68 69 70 68 70 71 72 73 74 72 74 75 76 77 78 76 78 79 80 81 82 80 82 83 84 85 86 84 86 87 88 89 90 88 90 91 92 93 94 92 94 95 96 97 98 96 98 99 100 101 102 100 102 103 104 105 106 104 106 107 108 109 110 108 110 111 112 113 114 112 114 115 116 117 118 116 118 119 120 121 122 120 122 123 124 125 126 124 126 127 128 129 130 128 130 131 132 133 134 132 134 135 136 137 138 136 138 139 140 141 142 140 142 143 144 145 146 144 146 147 148 149 150 148 150 151 152 153 154 152 154 155 156 157 158 156 158 159 160 161 162 160 162 163 164 165 166 164 166 167 168 169 170 168 170 171 172 173 174 172 174 175 176 177 178 176 178 179 180 181 182 180 182 183 184 185 186 184 186 187 188 189 190 188 190 191</p>
        </triangles>
      </mesh>
    </geometry>
  </library_geometries>
  <library_visual_scenes>
    <visual_scene id="S">
      <node><instance_geometry url="#net_mesh"/></node>
    </visual_scene>
  </library_visual_scenes>
  <scene><instance_visual_scene url="#S"/></scene>
</COLLADA>
