<svg xmlns="http://www.w3.org/2000/svg" width="1500" height="1000" viewBox="0 0 1500 1000">
  <defs>
    <marker id="arrow-green" markerWidth="10" markerHeight="10" refX="8" refY="3" orient="auto" markerUnits="strokeWidth">
      <path d="M0,0 L0,6 L9,3 z" fill="#2f8f46"/>
    </marker>
    <marker id="arrow-blue" markerWidth="10" markerHeight="10" refX="8" refY="3" orient="auto" markerUnits="strokeWidth">
      <path d="M0,0 L0,6 L9,3 z" fill="#1d6fb8"/>
    </marker>
    <marker id="arrow-red" markerWidth="10" markerHeight="10" refX="8" refY="3" orient="auto" markerUnits="strokeWidth">
      <path d="M0,0 L0,6 L9,3 z" fill="#c83d3d"/>
    </marker>
    <style>
      .title { font-family: Arial, sans-serif; font-size: 38px; font-weight: 700; fill: #121212; }
      .subtitle { font-family: Arial, sans-serif; font-size: 20px; fill: #333; }
      .label { font-family: Arial, sans-serif; font-size: 23px; fill: #111; }
      .small { font-family: Arial, sans-serif; font-size: 18px; fill: #222; }
      .tiny { font-family: Arial, sans-serif; font-size: 15px; fill: #333; }
      .panel { fill: #fbfbf7; stroke: #222; stroke-width: 2; rx: 14; }
      .chassis { fill: #d2d8dd; stroke: #222; stroke-width: 3; }
      .dark { fill: #252a30; stroke: #111; stroke-width: 3; }
      .rubber { fill: #1f2328; stroke: #111; stroke-width: 3; }
      .metal { fill: #b8c0c8; stroke: #222; stroke-width: 3; }
      .plastic { fill: #f1f4f5; stroke: #222; stroke-width: 3; }
      .transparent { fill: #dff6ff; fill-opacity: 0.58; stroke: #222; stroke-width: 3; }
      .ball { fill: #d6ee24; stroke: #75820d; stroke-width: 3; }
      .court { fill: #8fb18a; opacity: 0.55; }
      .flow { stroke: #2f8f46; stroke-width: 7; fill: none; marker-end: url(#arrow-green); }
      .motion { stroke: #1d6fb8; stroke-width: 6; fill: none; marker-end: url(#arrow-blue); }
      .adjust { stroke: #c83d3d; stroke-width: 5; fill: none; marker-end: url(#arrow-red); stroke-dasharray: 10 8; }
      .dim { stroke: #555; stroke-width: 2; fill: none; marker-start: url(#arrow-blue); marker-end: url(#arrow-blue); }
      .note { fill: #fff; stroke: #bbb; stroke-width: 2; rx: 10; }
    </style>
  </defs>

  <rect width="1500" height="1000" fill="#f2f4f1"/>
  <text x="50" y="70" class="title">CONCEPT A - RECOMMENDED ASSEMBLY SKETCH</text>
  <text x="52" y="104" class="subtitle">Funnel + wide intake roller collector first, with a clean interface for the later throw module</text>

  <rect x="45" y="135" width="690" height="405" class="panel"/>
  <rect x="765" y="135" width="690" height="405" class="panel"/>
  <rect x="45" y="575" width="690" height="355" class="panel"/>
  <rect x="765" y="575" width="690" height="355" class="panel"/>

  <!-- Top view panel -->
  <text x="75" y="180" class="label">Top View: Capture Path</text>
  <rect x="120" y="300" width="470" height="130" class="chassis" rx="18"/>
  <circle cx="165" cy="452" r="38" class="rubber"/>
  <circle cx="545" cy="452" r="38" class="rubber"/>
  <rect x="270" y="320" width="170" height="78" class="transparent" rx="10"/>
  <text x="303" y="365" class="small">hopper</text>
  <path d="M120 302 L65 225 L315 300 Z" class="plastic"/>
  <path d="M590 302 L645 225 L395 300 Z" class="plastic"/>
  <path d="M315 300 L395 300 L395 430 L315 430 Z" fill="#eef1f2" stroke="#222" stroke-width="3"/>
  <circle cx="87" cy="245" r="23" class="ball"/>
  <circle cx="155" cy="272" r="23" class="ball"/>
  <path d="M82 245 C170 265, 250 305, 333 362" class="flow"/>
  <path d="M154 272 C220 292, 280 322, 344 362" class="flow"/>
  <text x="90" y="504" class="small">wide mouth: 260-340 mm</text>
  <text x="452" y="504" class="small">throat: 75-85 mm</text>
  <line x1="65" y1="212" x2="645" y2="212" class="dim"/>
  <line x1="315" y1="285" x2="395" y2="285" class="dim"/>

  <!-- Side view panel -->
  <text x="795" y="180" class="label">Side View: Roller Into Hopper</text>
  <path d="M820 462 L1415 462 L1415 505 L820 505 Z" class="court"/>
  <rect x="940" y="365" width="345" height="95" class="chassis" rx="15"/>
  <circle cx="1000" cy="473" r="37" class="rubber"/>
  <circle cx="1225" cy="473" r="37" class="rubber"/>
  <path d="M810 452 L955 410 L955 456 L810 470 Z" class="plastic"/>
  <circle cx="875" cy="434" r="24" class="ball"/>
  <circle cx="985" cy="384" r="45" class="rubber"/>
  <circle cx="985" cy="384" r="14" fill="#777" stroke="#111" stroke-width="2"/>
  <rect x="1038" y="320" width="190" height="94" class="transparent" rx="12"/>
  <text x="1078" y="373" class="small">3-6 ball bin</text>
  <rect x="955" y="323" width="34" height="128" class="metal" rx="8"/>
  <path d="M890 430 C920 410, 950 392, 980 378" class="flow"/>
  <path d="M1008 372 C1042 356, 1070 350, 1100 351" class="flow"/>
  <path d="M985 338 A46 46 0 0 1 1028 388" class="motion"/>
  <text x="810" y="525" class="small">low lip: 5-12 mm</text>
  <text x="1020" y="525" class="small">adjustable roller gap: 55-65 mm</text>
  <path d="M934 326 L934 450" class="adjust"/>
  <text x="812" y="238" class="small">Wide roller pinches the ball against the back plate and raises it into the bin.</text>

  <!-- Exploded assembly panel -->
  <text x="75" y="620" class="label">Assembly Order</text>
  <rect x="95" y="685" width="110" height="75" class="chassis" rx="12"/>
  <text x="111" y="729" class="small">base plate</text>
  <path d="M250 670 L205 760 L300 760 Z" class="plastic"/>
  <path d="M356 670 L401 760 L306 760 Z" class="plastic"/>
  <text x="240" y="800" class="small">funnel sides</text>
  <rect x="445" y="690" width="55" height="110" class="metal" rx="8"/>
  <circle cx="528" cy="716" r="38" class="rubber"/>
  <rect x="582" y="682" width="95" height="55" class="dark" rx="8"/>
  <text x="584" y="767" class="small">motor + roller</text>
  <rect x="235" y="842" width="195" height="58" class="transparent" rx="10"/>
  <text x="263" y="878" class="small">hopper panels</text>
  <path d="M205 720 L245 720" class="motion"/>
  <path d="M400 720 L445 720" class="motion"/>
  <path d="M500 716 L582 710" class="motion"/>
  <path d="M430 842 C420 810, 460 775, 510 744" class="motion"/>
  <rect x="80" y="635" width="595" height="35" fill="none"/>
  <text x="85" y="650" class="tiny">1. Mount base plate  2. Add funnel sides  3. Add back plate  4. Add roller/motor  5. Add hopper</text>

  <!-- Interfaces panel -->
  <text x="795" y="620" class="label">Interfaces To Keep Stable</text>
  <rect x="815" y="660" width="285" height="90" class="note"/>
  <text x="835" y="692" class="small">base interface</text>
  <text x="835" y="721" class="tiny">front mounting holes, collector height, e-stop route</text>
  <rect x="1130" y="660" width="285" height="90" class="note"/>
  <text x="1150" y="692" class="small">software interface</text>
  <text x="1150" y="721" class="tiny">bearing, distance, collector state, jam timeout</text>
  <rect x="815" y="780" width="285" height="90" class="note"/>
  <text x="835" y="812" class="small">hopper exit</text>
  <text x="835" y="841" class="tiny">height and direction for Phase 2 feed gate</text>
  <rect x="1130" y="780" width="285" height="90" class="note"/>
  <text x="1150" y="812" class="small">adjustments</text>
  <text x="1150" y="841" class="tiny">lip height, roller gap, roller angle, motor speed</text>
  <path d="M970 754 L970 780" class="adjust"/>
  <path d="M1285 754 L1285 780" class="adjust"/>
  <text x="817" y="905" class="small">Recommended: make every red adjustment reachable without removing the collector from the base.</text>
</svg>
