<svg xmlns="http://www.w3.org/2000/svg" width="1400" height="900" viewBox="0 0 1400 900">
  <defs>
    <linearGradient id="bg" x1="0" y1="0" x2="0" y2="1">
      <stop offset="0" stop-color="#f7f8f4"/>
      <stop offset="1" stop-color="#e8ece6"/>
    </linearGradient>
    <linearGradient id="wood" x1="0" y1="0" x2="1" y2="0">
      <stop offset="0" stop-color="#8d6338"/>
      <stop offset="1" stop-color="#b07a42"/>
    </linearGradient>
    <style>
      .label { font: 24px Arial, sans-serif; fill: #20242a; }
      .small { font: 18px Arial, sans-serif; fill: #36404a; }
      .callout { stroke: #20242a; stroke-width: 3; fill: none; }
      .outline { stroke: #111820; stroke-width: 5; fill: none; stroke-linejoin: round; }
      .panel { fill: #9fd0f0; fill-opacity: .38; stroke: #506477; stroke-width: 3; }
    </style>
  </defs>

  <rect width="1400" height="900" fill="url(#bg)"/>
  <rect x="70" y="705" width="1260" height="30" fill="#c55f46" opacity=".55"/>
  <rect x="70" y="735" width="1260" height="35" fill="#b24f3d" opacity=".42"/>

  <!-- chassis and frame -->
  <rect x="260" y="590" width="720" height="54" rx="8" fill="url(#wood)" stroke="#111820" stroke-width="5"/>
  <rect x="300" y="290" width="610" height="285" rx="4" fill="none" stroke="#151a20" stroke-width="12"/>
  <line x1="338" y1="590" x2="338" y2="290" stroke="#151a20" stroke-width="12"/>
  <line x1="860" y1="590" x2="860" y2="290" stroke="#151a20" stroke-width="12"/>
  <line x1="620" y1="590" x2="620" y2="290" stroke="#151a20" stroke-width="8" opacity=".75"/>
  <rect x="322" y="312" width="560" height="245" class="panel"/>

  <!-- wheels -->
  <circle cx="350" cy="645" r="88" fill="#101318" stroke="#000" stroke-width="6"/>
  <circle cx="350" cy="645" r="36" fill="#2f333a"/>
  <circle cx="912" cy="660" r="48" fill="#101318" stroke="#000" stroke-width="5"/>
  <circle cx="912" cy="660" r="19" fill="#30343b"/>

  <!-- electronics -->
  <rect x="400" y="505" width="265" height="78" rx="4" fill="#777773" stroke="#2b2d30" stroke-width="4"/>
  <rect x="430" y="440" width="170" height="56" rx="4" fill="#55595d" stroke="#2b2d30" stroke-width="4"/>

  <!-- receiving bin -->
  <path d="M420 285 L620 285 L650 545 L390 545 Z" fill="#25b858" stroke="#0b632c" stroke-width="5"/>
  <path d="M400 520 L645 500" stroke="#0b632c" stroke-width="8" opacity=".7"/>
  <path d="M650 500 L742 500 L742 560 L645 560 Z" fill="#e5d57a" stroke="#7d7234" stroke-width="4"/>

  <!-- launcher module -->
  <rect x="720" y="330" width="155" height="250" rx="4" fill="#f5f4eb" stroke="#151a20" stroke-width="6"/>
  <circle cx="790" cy="405" r="52" fill="#101318"/>
  <circle cx="790" cy="405" r="28" fill="#9443ae" stroke="#151a20" stroke-width="5"/>
  <line x1="752" y1="367" x2="828" y2="443" stroke="#9443ae" stroke-width="10"/>
  <line x1="828" y1="367" x2="752" y2="443" stroke="#9443ae" stroke-width="10"/>
  <circle cx="790" cy="515" r="52" fill="#101318"/>
  <circle cx="790" cy="515" r="28" fill="#9443ae" stroke="#151a20" stroke-width="5"/>
  <line x1="752" y1="477" x2="828" y2="553" stroke="#9443ae" stroke-width="10"/>
  <line x1="828" y1="477" x2="752" y2="553" stroke="#9443ae" stroke-width="10"/>
  <path d="M870 450 L1065 540 L1032 618 L870 538 Z" fill="#eee9da" stroke="#151a20" stroke-width="5"/>

  <!-- intake -->
  <path d="M910 590 L1190 710 L1225 660 L985 515 Z" fill="#e8ad2e" stroke="#151a20" stroke-width="5"/>
  <path d="M930 560 L1225 660" stroke="#151a20" stroke-width="5"/>
  <circle cx="935" cy="540" r="38" fill="#101318" stroke="#000" stroke-width="5"/>
  <rect x="890" y="570" width="160" height="35" fill="#1d2228" stroke="#151a20" stroke-width="4"/>

  <!-- handle -->
  <rect x="255" y="120" width="18" height="470" fill="#e8c12c" stroke="#111820" stroke-width="4"/>
  <rect x="210" y="100" width="108" height="20" rx="3" fill="#e8c12c" stroke="#111820" stroke-width="4"/>

  <!-- ball path -->
  <path d="M1185 660 C1060 610 985 575 930 548 C850 508 780 500 742 528 C700 558 680 548 650 525"
        fill="none" stroke="#1d6eed" stroke-width="6" stroke-dasharray="12 12"/>
  <circle cx="1175" cy="650" r="22" fill="#b4d823" stroke="#536411" stroke-width="4"/>
  <circle cx="925" cy="545" r="18" fill="#b4d823" stroke="#536411" stroke-width="4"/>
  <circle cx="670" cy="520" r="16" fill="#b4d823" stroke="#536411" stroke-width="4"/>

  <!-- callouts -->
  <text x="102" y="72" class="label">Concept: wooden-base tennis collector / launcher robot</text>
  <text x="102" y="104" class="small">Approx. footprint: 760 x 430 mm, rear wheels 190 mm, front casters 85 mm, bin height 360 mm, flywheels 110 mm</text>

  <line x1="520" y1="270" x2="520" y2="210" class="callout"/>
  <text x="410" y="198" class="label">open receiving bin</text>

  <line x1="790" y1="405" x2="945" y2="310" class="callout"/>
  <text x="952" y="304" class="label">dual flywheels + guard</text>

  <line x1="1040" y1="600" x2="1190" y2="520" class="callout"/>
  <text x="1120" y="505" class="label">low front intake</text>

  <line x1="520" y1="550" x2="520" y2="675" class="callout"/>
  <text x="420" y="704" class="label">mini PC / battery / motors low</text>

  <line x1="620" y1="300" x2="680" y2="205" class="callout"/>
  <text x="690" y="198" class="label">cover rails + service panels</text>

  <line x1="265" y1="120" x2="390" y2="120" class="callout"/>
  <text x="400" y="128" class="label">folding transport handle</text>
</svg>
